<svg width="500" height="444" viewBox="0 0 500 444" fill="none" xmlns="http://www.w3.org/2000/svg" xmlns:xlink="http://www.w3.org/1999/xlink">
<rect  x="0" y="326.4" width="500" height="0.25" fill="#EBEBEB"/>
<path d="M237,281.8L43.91,281.8C42.397,281.798 40.948,281.194 39.879,280.124C38.81,279.054 38.21,277.602 38.21,276.09L38.21,4.66C38.223,3.156 38.829,1.718 39.896,0.658C40.964,-0.402 42.406,-0.997 43.91,-1L237,-1C238.514,-1 239.966,-0.398 241.038,0.672C242.108,1.743 242.71,3.196 242.71,4.71L242.71,276.09C242.71,277.604 242.108,279.056 241.038,280.128C239.966,281.198 238.514,281.8 237,281.8ZM43.91,-0.8C42.464,-0.797 41.077,-0.221 40.056,0.803C39.034,1.826 38.46,3.214 38.46,4.66L38.46,276.09C38.46,277.536 39.034,278.924 40.056,279.948C41.077,280.97 42.464,281.548 43.91,281.55L237,281.55C238.448,281.548 239.834,280.972 240.858,279.948C241.882,278.924 242.458,277.538 242.46,276.09L242.46,4.66C242.458,3.213 241.882,1.825 240.858,0.802C239.834,-0.221 238.448,-0.797 237,-0.8L43.91,-0.8Z" fill="#EBEBEB"/>
<path d="M453.31,281.8L260.21,281.8C258.696,281.798 257.246,281.194 256.175,280.124C255.105,279.054 254.503,277.604 254.5,276.09L254.5,4.66C254.516,3.155 255.124,1.717 256.193,0.658C257.262,-0.402 258.705,-0.997 260.21,-1L453.31,-1C454.812,-0.995 456.252,-0.398 457.318,0.662C458.382,1.721 458.986,3.158 459,4.66L459,276.09C459,277.6 458.402,279.05 457.334,280.12C456.268,281.19 454.82,281.794 453.31,281.8ZM260.21,-0.8C258.763,-0.797 257.375,-0.221 256.352,0.802C255.329,1.825 254.753,3.213 254.75,4.66L254.75,276.09C254.753,277.538 255.329,278.924 256.352,279.948C257.375,280.972 258.763,281.548 260.21,281.55L453.31,281.55C454.758,281.548 456.144,280.972 457.168,279.948C458.192,278.924 458.768,277.538 458.77,276.09L458.77,4.66C458.768,3.213 458.192,1.825 457.168,0.802C456.144,-0.221 454.758,-0.797 453.31,-0.8L260.21,-0.8Z" fill="#EBEBEB"/>
<rect  x="423.9" y="342.49" width="26" height="0.25" fill="#EBEBEB"/>
<rect  x="311" y="345.21" width="45.03" height="0.25" fill="#EBEBEB"/>
<rect  x="362.11" y="333.21" width="60.79" height="0.25" fill="#EBEBEB"/>
<rect  x="52.46" y="334.89" width="19.23" height="0.25" fill="#EBEBEB"/>
<rect  x="80.6" y="334.89" width="55.29" height="0.25" fill="#EBEBEB"/>
<rect  x="169.67" y="339.11" width="74.47" height="0.25" fill="#EBEBEB"/>
<rect  x="46.24" y="253.02" width="21.2" height="73.38" fill="#FAFAFA"/>
<rect  x="64.8" y="269.12" width="21.2" height="57.28" fill="#FAFAFA"/>
<rect  x="78.36" y="221.92" width="21.2" height="104.48" fill="#FAFAFA"/>
<rect  x="92.45" y="137.2" width="21.2" height="189.2" fill="#FAFAFA"/>
<rect  x="109.2" y="151.93" width="56.89" height="174.47" fill="#FAFAFA"/>
<rect  x="411.5" y="326.4" width="24.22" height="50.22" transform="rotate(360 411.5 326.4)" fill="#FAFAFA"/>
<rect  x="390.28" y="326.4" width="24.22" height="39.2" transform="rotate(360 390.28 326.4)" fill="#FAFAFA"/>
<rect  x="374.8" y="326.4" width="24.22" height="71.51" transform="rotate(360 374.8 326.4)" fill="#FAFAFA"/>
<rect  x="358.7" y="326.4" width="24.22" height="129.49" transform="rotate(360 358.7 326.4)" fill="#FAFAFA"/>
<rect  x="273.17" y="168.21" width="74.33" height="158.19" fill="#F0F0F0"/>
<rect  x="336.88" y="174.84" width="3.54" height="19.25" fill="#F5F5F5"/>
<rect  x="336.88" y="204.95" width="3.54" height="19.25" fill="#F5F5F5"/>
<rect  x="336.88" y="235.05" width="3.54" height="19.25" fill="#F5F5F5"/>
<rect  x="336.88" y="265.15" width="3.54" height="19.25" fill="#F5F5F5"/>
<rect  x="336.88" y="295.26" width="3.54" height="19.25" fill="#F5F5F5"/>
<rect  x="324.34" y="174.84" width="3.54" height="19.25" fill="#F5F5F5"/>
<rect  x="324.34" y="204.95" width="3.54" height="19.25" fill="#F5F5F5"/>
<rect  x="324.34" y="235.05" width="3.54" height="19.25" fill="#F5F5F5"/>
<rect  x="324.34" y="265.15" width="3.54" height="19.25" fill="#F5F5F5"/>
<rect  x="324.34" y="295.26" width="3.54" height="19.25" fill="#F5F5F5"/>
<rect  x="311.8" y="174.84" width="3.54" height="19.25" fill="#F5F5F5"/>
<rect  x="311.8" y="204.95" width="3.54" height="19.25" fill="#F5F5F5"/>
<rect  x="311.8" y="235.05" width="3.54" height="19.25" fill="#F5F5F5"/>
<rect  x="311.8" y="265.15" width="3.54" height="19.25" fill="#F5F5F5"/>
<rect  x="311.8" y="295.26" width="3.54" height="19.25" fill="#F5F5F5"/>
<rect  x="299.26" y="174.84" width="3.54" height="19.25" fill="#F5F5F5"/>
<rect  x="299.26" y="204.95" width="3.54" height="19.25" fill="#F5F5F5"/>
<rect  x="299.26" y="235.05" width="3.54" height="19.25" fill="#F5F5F5"/>
<rect  x="299.26" y="265.15" width="3.54" height="19.25" fill="#F5F5F5"/>
<rect  x="299.26" y="295.26" width="3.54" height="19.25" fill="#F5F5F5"/>
<rect  x="286.71" y="174.84" width="3.54" height="19.25" fill="#F5F5F5"/>
<rect  x="286.71" y="204.95" width="3.54" height="19.25" fill="#F5F5F5"/>
<rect  x="286.71" y="235.05" width="3.54" height="19.25" fill="#F5F5F5"/>
<rect  x="286.71" y="265.15" width="3.54" height="19.25" fill="#F5F5F5"/>
<rect  x="286.71" y="295.26" width="3.54" height="19.25" fill="#F5F5F5"/>
<g opacity="0.5">
<path d="M273.17,168.21L288.48,168.21L295.14,326.4L273.17,326.4L273.17,168.21Z" fill="#E0E0E0"/>
</g>
<path d="M236.63,107.09L280.71,115.43L280.71,326.4L236.63,326.4L236.63,107.09Z" fill="#F0F0F0"/>
<rect  x="201.36" y="107.09" width="35.27" height="219.31" fill="#E6E6E6"/>
<rect  x="280.71" y="126.39" width="79.35" height="1.12" transform="rotate(360 280.71 126.39)" fill="#E0E0E0"/>
<rect  x="280.71" y="138.33" width="79.35" height="1.12" transform="rotate(360 280.71 138.33)" fill="#E0E0E0"/>
<rect  x="280.71" y="150.27" width="79.35" height="1.12" transform="rotate(360 280.71 150.27)" fill="#E0E0E0"/>
<rect  x="280.71" y="162.2" width="79.35" height="1.12" transform="rotate(360 280.71 162.2)" fill="#E0E0E0"/>
<rect  x="280.71" y="174.15" width="79.35" height="1.12" transform="rotate(360 280.71 174.15)" fill="#E0E0E0"/>
<rect  x="280.71" y="186.09" width="79.35" height="1.12" transform="rotate(360 280.71 186.09)" fill="#E0E0E0"/>
<rect  x="280.71" y="198.03" width="79.35" height="1.12" transform="rotate(360 280.71 198.03)" fill="#E0E0E0"/>
<rect  x="280.71" y="209.97" width="79.35" height="1.12" transform="rotate(360 280.71 209.97)" fill="#E0E0E0"/>
<rect  x="280.71" y="221.92" width="79.35" height="1.12" transform="rotate(360 280.71 221.92)" fill="#E0E0E0"/>
<rect  x="280.71" y="233.86" width="79.35" height="1.12" transform="rotate(360 280.71 233.86)" fill="#E0E0E0"/>
<rect  x="280.71" y="245.8" width="79.35" height="1.12" transform="rotate(360 280.71 245.8)" fill="#E0E0E0"/>
<rect  x="280.71" y="257.73" width="79.35" height="1.12" transform="rotate(360 280.71 257.73)" fill="#E0E0E0"/>
<rect  x="280.71" y="269.68" width="79.35" height="1.12" transform="rotate(360 280.71 269.68)" fill="#E0E0E0"/>
<rect  x="280.71" y="281.62" width="79.35" height="1.12" transform="rotate(360 280.71 281.62)" fill="#E0E0E0"/>
<rect  x="280.71" y="293.56" width="79.35" height="1.12" transform="rotate(360 280.71 293.56)" fill="#E0E0E0"/>
<rect  x="280.71" y="305.5" width="79.35" height="1.12" transform="rotate(360 280.71 305.5)" fill="#E0E0E0"/>
<rect  x="280.71" y="317.45" width="79.35" height="1.12" transform="rotate(360 280.71 317.45)" fill="#E0E0E0"/>
<rect  x="145.2" y="60.48" width="36.87" height="265.92" fill="#F0F0F0"/>
<path d="M182.07,60.48L145.2,60.48L158.77,37L211.57,37L182.07,60.48Z" fill="#FAFAFA"/>
<path d="M182.07,60.48L211.57,37L211.57,326.4L182.07,326.4L182.07,60.48Z" fill="#EBEBEB"/>
<rect  x="145.2" y="72.87" width="66.37" height="1.42" fill="#E0E0E0"/>
<rect  x="145.2" y="87.92" width="66.37" height="1.42" fill="#E0E0E0"/>
<rect  x="145.2" y="102.97" width="66.37" height="1.42" fill="#E0E0E0"/>
<rect  x="145.2" y="118.03" width="66.37" height="1.42" fill="#E0E0E0"/>
<rect  x="145.2" y="133.08" width="66.37" height="1.42" fill="#E0E0E0"/>
<rect  x="145.2" y="148.13" width="66.37" height="1.42" fill="#E0E0E0"/>
<rect  x="145.2" y="163.18" width="66.37" height="1.42" fill="#E0E0E0"/>
<rect  x="145.2" y="178.23" width="66.37" height="1.42" fill="#E0E0E0"/>
<rect  x="145.2" y="193.28" width="66.37" height="1.42" fill="#E0E0E0"/>
<rect  x="145.2" y="208.34" width="66.37" height="1.42" fill="#E0E0E0"/>
<rect  x="145.2" y="223.39" width="66.37" height="1.42" fill="#E0E0E0"/>
<rect  x="145.2" y="238.44" width="66.37" height="1.42" fill="#E0E0E0"/>
<rect  x="145.2" y="253.49" width="66.37" height="1.42" fill="#E0E0E0"/>
<rect  x="145.2" y="268.54" width="66.37" height="1.42" fill="#E0E0E0"/>
<rect  x="145.2" y="283.59" width="66.37" height="1.42" fill="#E0E0E0"/>
<rect  x="145.2" y="298.65" width="66.37" height="1.42" fill="#E0E0E0"/>
<rect  x="145.2" y="313.7" width="66.37" height="1.42" fill="#E0E0E0"/>
<rect  x="98.55" y="189.16" width="40.25" height="137.24" fill="#F0F0F0"/>
<rect  x="106.47" y="196.25" width="6.46" height="22.03" fill="#E6E6E6"/>
<rect  x="122.32" y="196.25" width="6.46" height="22.03" fill="#E6E6E6"/>
<rect  x="106.47" y="224.78" width="6.46" height="22.03" fill="#E6E6E6"/>
<rect  x="122.32" y="224.78" width="6.46" height="22.03" fill="#E6E6E6"/>
<rect  x="106.47" y="253.3" width="6.46" height="22.03" fill="#E6E6E6"/>
<rect  x="122.32" y="253.3" width="6.46" height="22.03" fill="#E6E6E6"/>
<rect  x="106.47" y="281.83" width="6.46" height="22.03" fill="#E6E6E6"/>
<rect  x="122.32" y="281.83" width="6.46" height="22.03" fill="#E6E6E6"/>
<path d="M138.79,189.16L98.55,189.16L107.99,179.65L148.24,179.65L138.79,189.16Z" fill="#FFFFFF"/>
<path d="M138.79,189.16L148.24,179.65L157.68,189.16L157.68,326.4L138.79,326.4L138.79,189.16Z" fill="#E6E6E6"/>
<path d="M250,371.56C357.082,371.56 443.89,366.492 443.89,360.24C443.89,353.988 357.082,348.92 250,348.92C142.918,348.92 56.11,353.988 56.11,360.24C56.11,366.492 142.918,371.56 250,371.56Z" fill="#F5F5F5"/>
<path d="M416.95,58.58L289.42,58.58C284.289,58.58 280.13,62.739 280.13,67.87L280.13,350.94C280.13,356.07 284.289,360.23 289.42,360.23L416.95,360.23C422.081,360.23 426.24,356.07 426.24,350.94L426.24,67.87C426.24,62.739 422.081,58.58 416.95,58.58Z" fill="#F69454"/>
<path d="M411.17,58.58L283.64,58.58C278.509,58.58 274.35,62.739 274.35,67.87L274.35,350.94C274.35,356.07 278.509,360.23 283.64,360.23L411.17,360.23C416.301,360.23 420.46,356.07 420.46,350.94L420.46,67.87C420.46,62.739 416.301,58.58 411.17,58.58Z" fill="#F69454"/>
<g opacity="0.7">
<path d="M411.17,58.58L283.64,58.58C278.509,58.58 274.35,62.739 274.35,67.87L274.35,350.94C274.35,356.07 278.509,360.23 283.64,360.23L411.17,360.23C416.301,360.23 420.46,356.07 420.46,350.94L420.46,67.87C420.46,62.739 416.301,58.58 411.17,58.58Z" fill="#FFFFFF"/>
</g>
<g opacity="0.9">
<rect  x="295.77" y="58.58" width="7.91" height="301.65" fill="#FFFFFF"/>
<rect  x="382.52" y="58.58" width="4.85" height="301.65" fill="#FFFFFF"/>
<path d="M274.35,124.1L274.35,132.01L420.46,122.96L420.46,115.05L274.35,124.1Z" fill="#FFFFFF"/>
<path d="M351.37,241.87L343.46,241.87L343.46,387.98L351.37,387.98L351.37,241.87Z" transform="rotate(-180 347.415 314.925)" fill="#FFFFFF"/>
<path d="M349.56,92.69L345.25,92.69L345.25,238.8L349.56,238.8L349.56,92.69Z" transform="rotate(-180 347.405 165.745)" fill="#FFFFFF"/>
<path d="M274.35,265.56L274.35,274.62L420.46,225.18L420.46,216.12L274.35,265.56Z" fill="#FFFFFF"/>
<path d="M325.56,58.58L317.65,58.58L338.91,360.24L346.82,360.24L325.56,58.58Z" fill="#FFFFFF"/>
</g>
<path d="M395,329.29L221.05,329.29L221.05,275.07L374.38,275.07L388.69,286.7C390.668,288.305 392.261,290.333 393.353,292.634C394.445,294.936 395.008,297.453 395,300L395,329.29Z" fill="#F69454"/>
<g opacity="0.5">
<path d="M395,329.29L221.05,329.29L221.05,275.07L374.38,275.07L388.69,286.7C390.668,288.305 392.261,290.333 393.353,292.634C394.445,294.936 395.008,297.453 395,300L395,329.29Z" fill="#000000"/>
</g>
<path d="M220.05,324.4C220.05,304.61 229.05,288.57 240.05,288.57L218.83,288.57C207.76,288.57 198.83,304.57 198.83,324.4C198.83,344.23 207.83,360.24 218.83,360.24L240.09,360.24C229,360.24 220.05,344.19 220.05,324.4Z" fill="#263238"/>
<path d="M240.09,360.23C251.158,360.23 260.13,344.188 260.13,324.4C260.13,304.612 251.158,288.57 240.09,288.57C229.022,288.57 220.05,304.612 220.05,324.4C220.05,344.188 229.022,360.23 240.09,360.23Z" fill="#263238"/>
<path d="M241.7,352.34C249.548,352.34 255.91,339.831 255.91,324.4C255.91,308.969 249.548,296.46 241.7,296.46C233.852,296.46 227.49,308.969 227.49,324.4C227.49,339.831 233.852,352.34 241.7,352.34Z" fill="#FFFFFF"/>
<path d="M104.54,324.4C104.54,304.61 113.54,288.57 124.54,288.57L103.32,288.57C92.25,288.57 83.32,304.57 83.32,324.4C83.32,344.23 92.32,360.24 103.32,360.24L124.58,360.24C113.51,360.24 104.54,344.19 104.54,324.4Z" fill="#263238"/>
<path d="M124.58,360.23C135.648,360.23 144.62,344.188 144.62,324.4C144.62,304.612 135.648,288.57 124.58,288.57C113.512,288.57 104.54,304.612 104.54,324.4C104.54,344.188 113.512,360.23 124.58,360.23Z" fill="#263238"/>
<path d="M357.38,324.4C357.38,304.61 366.38,288.57 377.38,288.57L356.16,288.57C345.1,288.57 336.16,304.57 336.16,324.4C336.16,344.23 345.16,360.24 356.16,360.24L377.42,360.24C366.36,360.24 357.38,344.19 357.38,324.4Z" fill="#263238"/>
<path d="M377.42,360.23C388.488,360.23 397.46,344.188 397.46,324.4C397.46,304.612 388.488,288.57 377.42,288.57C366.352,288.57 357.38,304.612 357.38,324.4C357.38,344.188 366.352,360.23 377.42,360.23Z" fill="#263238"/>
<path d="M379.04,352.34C386.888,352.34 393.25,339.831 393.25,324.4C393.25,308.969 386.888,296.46 379.04,296.46C371.192,296.46 364.83,308.969 364.83,324.4C364.83,339.831 371.192,352.34 379.04,352.34Z" fill="#FFFFFF"/>
<path d="M196.37,334.4L170.66,334.4L169.22,333C167.741,331.518 165.734,330.683 163.64,330.68L99.38,330.68C97.286,330.683 95.279,331.518 93.8,333L92.92,333.87L90.58,333.87C88.762,333.87 86.962,333.511 85.283,332.813C83.604,332.115 82.079,331.092 80.797,329.803C79.515,328.514 78.5,326.985 77.81,325.303C77.121,323.62 76.771,321.818 76.78,320L76.78,298.85L222.6,298.85L211,324.07C209.93,327.094 207.948,329.712 205.328,331.562C202.708,333.412 199.578,334.404 196.37,334.4Z" fill="#F69454"/>
<g opacity="0.2">
<path d="M196.37,334.4L170.66,334.4L169.22,333C167.741,331.518 165.734,330.683 163.64,330.68L99.38,330.68C97.286,330.683 95.279,331.518 93.8,333L92.92,333.87L90.58,333.87C88.762,333.87 86.962,333.511 85.283,332.813C83.604,332.115 82.079,331.092 80.797,329.803C79.515,328.514 78.5,326.985 77.81,325.303C77.121,323.62 76.771,321.818 76.78,320L76.78,298.85L222.6,298.85L211,324.07C209.93,327.094 207.948,329.712 205.328,331.562C202.708,333.412 199.578,334.404 196.37,334.4Z" fill="#000000"/>
</g>
<path d="M348.16,208.68C348.072,208.682 347.985,208.657 347.91,208.61C347.853,208.578 347.803,208.535 347.762,208.483C347.722,208.431 347.693,208.372 347.676,208.308C347.659,208.245 347.655,208.179 347.665,208.114C347.674,208.049 347.696,207.986 347.73,207.93L354.73,195.93C354.759,195.866 354.801,195.809 354.853,195.763C354.905,195.716 354.967,195.681 355.033,195.66C355.1,195.638 355.17,195.631 355.24,195.639C355.309,195.646 355.376,195.669 355.437,195.704C355.497,195.739 355.55,195.786 355.591,195.843C355.632,195.9 355.66,195.964 355.675,196.033C355.689,196.101 355.689,196.172 355.675,196.24C355.66,196.309 355.631,196.373 355.59,196.43L348.59,208.43C348.546,208.506 348.484,208.568 348.408,208.612C348.333,208.656 348.247,208.68 348.16,208.68Z" fill="#263238"/>
<path d="M385.08,268.38L385.08,254.74C385.08,247.57 374.66,213.74 360.33,207.4C346,201.06 311.33,198.24 289.49,199.4C267.65,200.56 238.49,246.24 238.49,246.24L241.66,285.52C246.1,285.52 260.24,284.18 262.31,323.04C262.449,325.78 263.636,328.361 265.626,330.249C267.617,332.136 270.257,333.186 273,333.18L349.46,333.18C352.028,333.178 354.51,332.248 356.447,330.561C358.384,328.874 359.645,326.544 360,324C362,310.15 367.22,285.49 379.81,285.49C388.64,285.49 394.97,293.05 394.97,301.72C394.972,292.195 392.659,282.812 388.23,274.38L385.08,268.38Z" fill="#F69454"/>
<path d="M209.49,199.4C169.72,199.4 124.66,246.24 124.66,246.24L238.53,246.24C238.53,246.24 267.66,200.57 289.53,199.4L209.49,199.4Z" fill="#F69454"/>
<g opacity="0.4">
<path d="M211.93,199.4C178.43,199.4 143.29,232.64 133.04,243.11C132.785,243.369 132.613,243.698 132.545,244.055C132.476,244.411 132.515,244.781 132.657,245.115C132.798,245.45 133.035,245.735 133.338,245.936C133.641,246.136 133.997,246.242 134.36,246.24L226.22,246.24C229.917,246.251 233.565,245.388 236.866,243.724C240.168,242.059 243.03,239.639 245.22,236.66C255.1,223.2 274.13,200.23 289.53,199.4L211.93,199.4Z" fill="#FFFFFF"/>
</g>
<path d="M238.53,246.24L196.47,279.43L83.28,279.07C83.28,279.07 76.78,288.52 76.78,298.85L222.6,298.85C224.99,292.52 233.37,285.52 241.7,285.52C241.7,273.74 238.53,246.24 238.53,246.24Z" fill="#F69454"/>
<g opacity="0.2">
<path d="M211,269.65C210.88,269.649 210.765,269.605 210.675,269.526C210.585,269.447 210.527,269.339 210.51,269.22C210.493,269.09 210.527,268.959 210.606,268.854C210.684,268.75 210.801,268.68 210.93,268.66C221.026,267.023 230.474,262.628 238.23,255.96C239.763,254.67 240.761,252.856 241.029,250.87C241.298,248.885 240.816,246.87 239.68,245.22C239.638,245.167 239.608,245.105 239.591,245.039C239.574,244.974 239.571,244.905 239.581,244.838C239.591,244.771 239.615,244.707 239.651,244.649C239.687,244.592 239.734,244.542 239.79,244.503C239.845,244.465 239.908,244.438 239.975,244.424C240.041,244.41 240.11,244.41 240.176,244.424C240.243,244.438 240.306,244.465 240.361,244.504C240.417,244.543 240.464,244.592 240.5,244.65C241.774,246.506 242.314,248.769 242.012,250.999C241.711,253.23 240.591,255.269 238.87,256.72C230.978,263.512 221.359,267.984 211.08,269.64L211,269.65Z" fill="#000000"/>
</g>
<path d="M83.28,279.07C83.28,279.07 103.16,255.9 124.66,246.24L238.53,246.24L196.47,279.43L83.28,279.07Z" fill="#F69454"/>
<rect  x="96.66" y="279.07" width="74.67" height="2.17" fill="#263238"/>
<path d="M169.78,274.73L173.78,270.73C174.679,269.832 175.818,269.21 177.06,268.94L207.27,262.36C208.332,262.128 209.435,262.162 210.48,262.46L212.1,262.91C213.179,263.214 214.163,263.786 214.961,264.572C215.759,265.359 216.345,266.335 216.664,267.409C216.984,268.483 217.026,269.62 216.787,270.715C216.549,271.81 216.037,272.826 215.3,273.67L208.8,281.1C207.679,282.378 206.112,283.18 204.42,283.34L175.09,286C174.121,286.092 173.144,285.97 172.228,285.642C171.312,285.313 170.479,284.787 169.79,284.1C168.55,282.857 167.852,281.173 167.85,279.417C167.848,277.661 168.542,275.976 169.78,274.73Z" fill="#FFFFFF"/>
<path d="M98.77,276.85L95.46,270.66C94.994,269.793 94.303,269.068 93.46,268.56C92.659,268.08 91.748,267.814 90.815,267.787C89.881,267.761 88.957,267.976 88.13,268.41L85.62,269.73C84.387,270.382 83.45,271.48 83,272.8L81.47,277.33C81.216,278.076 81.126,278.868 81.207,279.652C81.288,280.436 81.539,281.193 81.941,281.87C82.343,282.548 82.887,283.131 83.536,283.578C84.185,284.025 84.923,284.326 85.7,284.46L92.61,285.65C93.737,285.845 94.897,285.681 95.925,285.18C96.954,284.679 97.798,283.868 98.34,282.86L98.8,282.01C99.223,281.215 99.442,280.327 99.437,279.426C99.432,278.526 99.203,277.64 98.77,276.85Z" fill="#FFFFFF"/>
<g opacity="0.4">
<path d="M261.79,247.57L367.07,247.57C367.962,247.571 368.843,247.362 369.64,246.962C370.438,246.561 371.131,245.979 371.663,245.263C372.196,244.547 372.553,243.716 372.707,242.837C372.861,241.958 372.807,241.055 372.55,240.2C370.15,232.2 365.55,219.69 358.64,213.31C357.872,212.607 356.929,212.124 355.91,211.91C343.5,209.28 323.55,207.53 308.75,206.51C302.042,206.051 295.313,207.05 289.028,209.44C282.743,211.829 277.05,215.551 272.34,220.35C266.709,226.038 261.623,232.242 257.15,238.88C256.589,239.721 256.268,240.698 256.218,241.708C256.169,242.717 256.395,243.721 256.871,244.613C257.347,245.505 258.056,246.25 258.922,246.771C259.788,247.292 260.779,247.568 261.79,247.57Z" fill="#FFFFFF"/>
</g>
<path d="M193.72,310.57C193.72,313.85 190.36,316.52 186.22,316.52C182.08,316.52 178.72,313.85 178.72,310.57C178.72,307.29 182.07,304.63 186.22,304.63C190.37,304.63 193.72,307.29 193.72,310.57Z" fill="#263238"/>
<path d="M133.29,274.53C135.75,274.53 136.95,277.05 135.97,280.15C134.99,283.25 132.21,285.78 129.74,285.78C127.27,285.78 126.08,283.26 127.06,280.15C128.04,277.04 130.83,274.53 133.29,274.53Z" fill="#263238"/>
<path d="M82.83,310.57C82.83,313.85 81.83,316.52 80.72,316.52C79.61,316.52 78.6,313.85 78.6,310.57C78.6,307.29 79.6,304.63 80.72,304.63C81.84,304.63 82.83,307.29 82.83,310.57Z" fill="#263238"/>
<path d="M258.55,246.62L258.55,243.25C258.549,242.283 258.764,241.328 259.178,240.454C259.593,239.581 260.198,238.811 260.948,238.2C261.698,237.59 262.575,237.155 263.515,236.926C264.454,236.698 265.433,236.682 266.38,236.88L279.2,239.55C280.664,239.855 281.978,240.655 282.921,241.815C283.864,242.975 284.379,244.425 284.38,245.92L284.38,246.62C284.38,248.345 283.696,249.999 282.477,251.22C281.258,252.44 279.605,253.127 277.88,253.13L265.06,253.13C263.333,253.13 261.678,252.444 260.457,251.223C259.236,250.002 258.55,248.347 258.55,246.62Z" fill="#263238"/>
<path d="M326,207.91C326,207.91 324.29,207.74 321.31,207.48C334.49,234.48 331.13,247.57 331.13,247.57L341.19,247.57C341.29,231.13 326,207.91 326,207.91Z" fill="#263238"/>
<g opacity="0.2">
<path d="M214.84,235.48C214.636,237.602 213.65,239.572 212.073,241.007C210.496,242.441 208.442,243.237 206.31,243.24L154.48,243.24C150.7,243.24 149.33,239.02 152.07,235.88C157.014,230.25 162.383,225.008 168.13,220.2C177.89,211.98 190.01,207.71 201.34,208.5L205.62,208.81C207.467,208.954 209.219,209.691 210.613,210.911C212.008,212.131 212.971,213.768 213.36,215.58C214.872,222.098 215.372,228.81 214.84,235.48Z" fill="#F69454"/>
</g>
<g opacity="0.2">
<path d="M332.33,326.07C332.197,326.07 332.07,326.017 331.976,325.923C331.883,325.83 331.83,325.703 331.83,325.57C331.83,315.45 336.99,273.72 338.34,267.47C339.65,261.4 339.65,254.62 338.34,250.21C338.303,250.083 338.318,249.946 338.382,249.83C338.445,249.713 338.553,249.627 338.68,249.59C338.807,249.556 338.943,249.572 339.058,249.635C339.174,249.698 339.261,249.804 339.3,249.93C340.65,254.49 340.65,261.46 339.3,267.68C337.95,273.9 332.81,315.49 332.81,325.57C332.81,325.699 332.76,325.823 332.671,325.917C332.581,326.01 332.459,326.065 332.33,326.07Z" fill="#000000"/>
</g>
<g opacity="0.2">
<path d="M331,268L318.81,268C318.579,268.007 318.349,267.962 318.138,267.866C317.927,267.771 317.741,267.628 317.594,267.449C317.447,267.271 317.344,267.06 317.291,266.835C317.238,266.61 317.238,266.375 317.29,266.15L317.54,264.74C317.641,264.232 317.91,263.774 318.304,263.438C318.697,263.102 319.193,262.909 319.71,262.89L331.9,262.89C332.131,262.882 332.361,262.928 332.572,263.024C332.783,263.119 332.969,263.262 333.116,263.441C333.262,263.619 333.366,263.83 333.419,264.055C333.472,264.28 333.472,264.515 333.42,264.74L333.17,266.15C333.069,266.657 332.8,267.116 332.406,267.452C332.012,267.788 331.517,267.981 331,268Z" fill="#000000"/>
</g>
<path d="M367.88,116.48L366.88,116.48C366.88,113.934 366.513,111.401 365.79,108.96L366.79,108.68C367.528,111.214 367.895,113.841 367.88,116.48ZM363.57,103.69C361.279,99.58 357.934,96.154 353.879,93.767C349.824,91.38 345.206,90.118 340.5,90.11L340.5,89.11C345.385,89.115 350.179,90.425 354.388,92.903C358.597,95.382 362.067,98.941 364.44,103.21L363.57,103.69Z" fill="#F69454"/>
<path d="M340.5,92.61C334.171,92.613 328.102,95.129 323.628,99.605C319.154,104.081 316.64,110.151 316.64,116.48C316.64,139.48 340.5,155.24 340.5,155.24C340.5,155.24 364.38,139.47 364.38,116.48C364.377,110.148 361.86,104.077 357.382,99.601C352.904,95.125 346.832,92.61 340.5,92.61ZM340.5,127.72C338.297,127.718 336.144,127.063 334.314,125.838C332.483,124.613 331.057,122.872 330.215,120.836C329.373,118.801 329.154,116.561 329.585,114.401C330.016,112.24 331.078,110.256 332.636,108.699C334.195,107.142 336.18,106.082 338.34,105.653C340.501,105.224 342.74,105.446 344.775,106.289C346.81,107.133 348.55,108.56 349.773,110.392C350.997,112.224 351.65,114.377 351.65,116.58C351.65,118.044 351.362,119.493 350.801,120.846C350.241,122.198 349.419,123.426 348.384,124.461C347.348,125.495 346.119,126.316 344.766,126.875C343.413,127.434 341.964,127.722 340.5,127.72Z" fill="#F69454"/>
</svg>
