<svg width="44" height="40" viewBox="0 0 44 40" fill="none" xmlns="http://www.w3.org/2000/svg" xmlns:xlink="http://www.w3.org/1999/xlink">
<path d="M35.444,0L11,0C7.324,0 4.333,2.991 4.333,6.667L4.333,8.889L2.111,8.889C0.882,8.889 -0.111,9.884 -0.111,11.111C-0.111,12.338 0.882,13.333 2.111,13.333L4.333,13.333L4.333,17.778L2.111,17.778C0.882,17.778 -0.111,18.773 -0.111,20C-0.111,21.227 0.882,22.222 2.111,22.222L4.333,22.222L4.333,26.667L2.111,26.667C0.882,26.667 -0.111,27.662 -0.111,28.889C-0.111,30.116 0.882,31.111 2.111,31.111L4.333,31.111L4.333,33.333C4.333,37.009 7.324,40 11,40L35.444,40C39.12,40 42.111,37.009 42.111,33.333L42.111,6.667C42.111,2.991 39.12,0 35.444,0ZM8.778,6.667C8.778,5.442 9.775,4.444 11,4.444L11,8.889L8.778,8.889L8.778,6.667ZM8.778,13.333L11,13.333L11,17.778L8.778,17.778L8.778,13.333ZM8.778,22.222L11,22.222L11,26.667L8.778,26.667L8.778,22.222ZM8.778,33.333L8.778,31.111L11,31.111L11,35.556C9.775,35.556 8.778,34.558 8.778,33.333ZM37.666,33.333C37.666,34.558 36.669,35.556 35.444,35.556L13.222,35.556L13.222,4.444L35.444,4.444C36.669,4.444 37.666,5.442 37.666,6.667L37.666,33.333Z" fill="#1C1C28"/>
<path d="M18,18L17.386,17.211C17.142,17.4 17,17.691 17,18L18,18ZM24,13.333L24.614,12.544C24.253,12.263 23.747,12.263 23.386,12.544L24,13.333ZM30,18L31,18C31,17.691 30.858,17.4 30.614,17.211L30,18ZM18,25.333L17,25.333L18,25.333ZM18.614,18.789L24.614,14.123L23.386,12.544L17.386,17.211L18.614,18.789ZM23.386,14.123L29.386,18.789L30.614,17.211L24.614,12.544L23.386,14.123ZM29,18L29,25.333L31,25.333L31,18L29,18ZM29,25.333C29,25.422 28.965,25.506 28.902,25.569L30.317,26.983C30.754,26.546 31,25.952 31,25.333L29,25.333ZM28.902,25.569C28.84,25.631 28.755,25.667 28.667,25.667L28.667,27.667C29.285,27.667 29.879,27.421 30.317,26.983L28.902,25.569ZM28.667,25.667L19.333,25.667L19.333,27.667L28.667,27.667L28.667,25.667ZM19.333,25.667C19.245,25.667 19.16,25.631 19.098,25.569L17.683,26.983C18.121,27.421 18.714,27.667 19.333,27.667L19.333,25.667ZM19.098,25.569C19.035,25.506 19,25.422 19,25.333L17,25.333C17,25.952 17.246,26.546 17.683,26.983L19.098,25.569ZM19,25.333L19,18L17,18L17,25.333L19,25.333Z" fill="#1C1C28"/>
<path d="M21,26.667C21,27.219 21.448,27.667 22,27.667C22.552,27.667 23,27.219 23,26.667L21,26.667ZM22,20L22,19C21.448,19 21,19.448 21,20L22,20ZM26,20L27,20C27,19.448 26.552,19 26,19L26,20ZM25,26.667C25,27.219 25.448,27.667 26,27.667C26.552,27.667 27,27.219 27,26.667L25,26.667ZM23,26.667L23,20L21,20L21,26.667L23,26.667ZM22,21L26,21L26,19L22,19L22,21ZM25,20L25,26.667L27,26.667L27,20L25,20Z" fill="#1C1C28"/>
</svg>
