<svg width="24" height="28" viewBox="0 0 24 28" fill="none" xmlns="http://www.w3.org/2000/svg" xmlns:xlink="http://www.w3.org/1999/xlink">
<path d="M19.764,7.76L19.764,8.84L19.764,7.76ZM19.764,2L19.764,0.92L19.764,2ZM19.764,8.84C20.765,8.84 21.687,8.378 22.34,7.622L20.705,6.211C20.425,6.535 20.082,6.68 19.764,6.68L19.764,8.84ZM22.34,7.622C22.988,6.872 23.331,5.883 23.331,4.88L21.171,4.88C21.171,5.404 20.99,5.881 20.705,6.211L22.34,7.622ZM23.331,4.88C23.331,3.877 22.988,2.888 22.34,2.138L20.705,3.549C20.99,3.879 21.171,4.356 21.171,4.88L23.331,4.88ZM22.34,2.138C21.687,1.382 20.765,0.92 19.764,0.92L19.764,3.08C20.082,3.08 20.425,3.225 20.705,3.549L22.34,2.138ZM19.764,0.92C18.762,0.92 17.84,1.382 17.188,2.138L18.822,3.549C19.103,3.225 19.446,3.08 19.764,3.08L19.764,0.92ZM17.188,2.138C16.539,2.888 16.197,3.877 16.197,4.88L18.357,4.88C18.357,4.356 18.538,3.879 18.822,3.549L17.188,2.138ZM16.197,4.88C16.197,5.883 16.539,6.872 17.188,7.622L18.822,6.211C18.538,5.881 18.357,5.404 18.357,4.88L16.197,4.88ZM17.188,7.622C17.84,8.378 18.762,8.84 19.764,8.84L19.764,6.68C19.446,6.68 19.103,6.535 18.822,6.211L17.188,7.622Z" fill="#FFFFFF"/>
<path d="M9.815,23.419C8.92,23.419 8.195,24.145 8.195,25.039C8.195,25.934 8.92,26.659 9.815,26.659L9.815,23.419ZM16.655,25.039L16.655,26.659L16.655,26.659L16.655,25.039ZM16.655,14.959L16.655,13.339L16.655,13.339L16.655,14.959ZM6.706,4.879L6.706,3.259L6.706,4.879ZM12.302,6.499C13.197,6.499 13.922,5.774 13.922,4.879C13.922,3.985 13.197,3.259 12.302,3.259L12.302,6.499ZM9.815,26.659L16.655,26.659L16.655,23.419L9.815,23.419L9.815,26.659ZM16.655,26.659C18.322,26.659 19.863,25.891 20.959,24.622L18.507,22.504C17.97,23.126 17.297,23.419 16.655,23.419L16.655,26.659ZM20.959,24.622C22.048,23.361 22.628,21.695 22.628,19.999L19.388,19.999C19.388,20.977 19.05,21.875 18.507,22.504L20.959,24.622ZM22.628,19.999C22.628,18.304 22.048,16.638 20.959,15.377L18.507,17.494C19.05,18.124 19.388,19.022 19.388,19.999L22.628,19.999ZM20.959,15.377C19.863,14.108 18.322,13.339 16.655,13.339L16.655,16.579C17.297,16.579 17.97,16.873 18.507,17.494L20.959,15.377ZM16.655,13.339L6.706,13.339L6.706,16.579L16.655,16.579L16.655,13.339ZM6.706,13.339C6.064,13.339 5.391,13.046 4.854,12.424L2.402,14.542C3.497,15.811 5.039,16.579 6.706,16.579L6.706,13.339ZM4.854,12.424C4.311,11.795 3.973,10.897 3.973,9.919L0.733,9.919C0.733,11.615 1.313,13.281 2.402,14.542L4.854,12.424ZM3.973,9.919C3.973,8.942 4.311,8.044 4.854,7.414L2.402,5.297C1.313,6.558 0.733,8.224 0.733,9.919L3.973,9.919ZM4.854,7.414C5.391,6.793 6.064,6.499 6.706,6.499L6.706,3.259C5.039,3.259 3.497,4.028 2.402,5.297L4.854,7.414ZM6.706,6.499L12.302,6.499L12.302,3.259L6.706,3.259L6.706,6.499Z" fill="#FFFFFF"/>
</svg>
