<svg width="48" height="48" viewBox="0 0 48 48" fill="none" xmlns="http://www.w3.org/2000/svg" xmlns:xlink="http://www.w3.org/1999/xlink">
<path d="M30,21L31.5,21L30,21ZM24,15L24,13.5L24,15ZM28.5,21C28.5,22.193 28.026,23.338 27.182,24.182L29.303,26.303C30.71,24.897 31.5,22.989 31.5,21L28.5,21ZM27.182,24.182C26.338,25.026 25.193,25.5 24,25.5L24,28.5C25.989,28.5 27.897,27.71 29.303,26.303L27.182,24.182ZM24,25.5C22.807,25.5 21.662,25.026 20.818,24.182L18.697,26.303C20.103,27.71 22.011,28.5 24,28.5L24,25.5ZM20.818,24.182C19.974,23.338 19.5,22.193 19.5,21L16.5,21C16.5,22.989 17.29,24.897 18.697,26.303L20.818,24.182ZM19.5,21C19.5,19.807 19.974,18.662 20.818,17.818L18.697,15.697C17.29,17.103 16.5,19.011 16.5,21L19.5,21ZM20.818,17.818C21.662,16.974 22.807,16.5 24,16.5L24,13.5C22.011,13.5 20.103,14.29 18.697,15.697L20.818,17.818ZM24,16.5C25.193,16.5 26.338,16.974 27.182,17.818L29.303,15.697C27.897,14.29 25.989,13.5 24,13.5L24,16.5ZM27.182,17.818C28.026,18.662 28.5,19.807 28.5,21L31.5,21C31.5,19.011 30.71,17.103 29.303,15.697L27.182,17.818Z" fill="#FFFFFF"/>
<path d="M39,21L40.5,21L39,21ZM24,43.5L23.279,44.816C23.728,45.061 24.272,45.061 24.721,44.816L24,43.5ZM24,6L24,4.5L24,6ZM37.5,21C37.5,27.592 34.039,32.86 30.427,36.558C28.63,38.398 26.83,39.813 25.478,40.768C24.804,41.244 24.244,41.604 23.858,41.842C23.665,41.961 23.515,42.049 23.416,42.106C23.367,42.135 23.33,42.156 23.307,42.169C23.295,42.175 23.287,42.18 23.283,42.183C23.28,42.184 23.279,42.185 23.278,42.185C23.278,42.185 23.278,42.185 23.278,42.185C23.278,42.185 23.279,42.185 23.279,42.185C23.279,42.185 23.279,42.184 24,43.5C24.721,44.816 24.721,44.815 24.722,44.815C24.722,44.815 24.723,44.814 24.723,44.814C24.724,44.814 24.726,44.813 24.727,44.812C24.73,44.81 24.734,44.808 24.739,44.805C24.749,44.8 24.762,44.792 24.779,44.783C24.813,44.764 24.86,44.737 24.921,44.702C25.041,44.632 25.214,44.53 25.431,44.396C25.865,44.129 26.478,43.735 27.209,43.218C28.67,42.186 30.62,40.655 32.573,38.655C36.461,34.674 40.5,28.692 40.5,21L37.5,21ZM24,43.5C24.721,42.184 24.721,42.185 24.721,42.185C24.721,42.185 24.722,42.185 24.722,42.185C24.722,42.185 24.722,42.185 24.722,42.185C24.721,42.185 24.72,42.184 24.717,42.183C24.713,42.18 24.705,42.175 24.693,42.169C24.67,42.156 24.633,42.135 24.584,42.106C24.485,42.049 24.335,41.961 24.142,41.842C23.756,41.604 23.196,41.244 22.522,40.768C21.17,39.813 19.37,38.398 17.573,36.558C13.961,32.86 10.5,27.592 10.5,21L7.5,21C7.5,28.692 11.539,34.674 15.427,38.655C17.38,40.655 19.33,42.186 20.791,43.218C21.522,43.735 22.135,44.129 22.569,44.396C22.786,44.53 22.959,44.632 23.079,44.702C23.14,44.737 23.187,44.764 23.221,44.783C23.238,44.792 23.251,44.8 23.261,44.805C23.266,44.808 23.27,44.81 23.273,44.812C23.274,44.813 23.276,44.814 23.277,44.814C23.277,44.814 23.278,44.815 23.278,44.815C23.279,44.815 23.279,44.816 24,43.5ZM10.5,21C10.5,17.42 11.922,13.986 14.454,11.454L12.333,9.333C9.238,12.427 7.5,16.624 7.5,21L10.5,21ZM14.454,11.454C16.986,8.922 20.42,7.5 24,7.5L24,4.5C19.624,4.5 15.427,6.238 12.333,9.333L14.454,11.454ZM24,7.5C27.58,7.5 31.014,8.922 33.546,11.454L35.667,9.333C32.573,6.238 28.376,4.5 24,4.5L24,7.5ZM33.546,11.454C36.078,13.986 37.5,17.42 37.5,21L40.5,21C40.5,16.624 38.762,12.427 35.667,9.333L33.546,11.454Z" fill="#FFFFFF"/>
</svg>
