<svg width="58" height="58" viewBox="0 0 58 58" fill="none" xmlns="http://www.w3.org/2000/svg" xmlns:xlink="http://www.w3.org/1999/xlink">
<path d="M36.25,23.227L37.75,23.227L36.25,23.227ZM29,15.977L29,14.477L29,15.977ZM34.75,23.227C34.75,24.752 34.144,26.214 33.065,27.293L35.187,29.414C36.828,27.773 37.75,25.547 37.75,23.227L34.75,23.227ZM33.065,27.293C31.987,28.371 30.525,28.977 29,28.977L29,31.977C31.32,31.977 33.546,31.055 35.187,29.414L33.065,27.293ZM29,28.977C27.475,28.977 26.012,28.371 24.934,27.293L22.812,29.414C24.453,31.055 26.679,31.977 29,31.977L29,28.977ZM24.934,27.293C23.855,26.214 23.25,24.752 23.25,23.227L20.25,23.227C20.25,25.547 21.171,27.773 22.812,29.414L24.934,27.293ZM23.25,23.227C23.25,21.702 23.855,20.239 24.934,19.161L22.812,17.04C21.171,18.681 20.25,20.906 20.25,23.227L23.25,23.227ZM24.934,19.161C26.012,18.083 27.475,17.477 29,17.477L29,14.477C26.679,14.477 24.453,15.399 22.812,17.04L24.934,19.161ZM29,17.477C30.525,17.477 31.987,18.083 33.065,19.161L35.187,17.04C33.546,15.399 31.32,14.477 29,14.477L29,17.477ZM33.065,19.161C34.144,20.239 34.75,21.702 34.75,23.227L37.75,23.227C37.75,20.906 36.828,18.681 35.187,17.04L33.065,19.161Z" fill="#FFFFFF"/>
<path d="M47.125,23.227L48.625,23.227L47.125,23.227ZM29,50.414L28.279,51.73C28.728,51.976 29.271,51.976 29.72,51.73L29,50.414ZM29,5.102L29,3.602L29,5.102ZM45.625,23.227C45.625,31.307 41.382,37.747 36.989,42.245C34.802,44.484 32.611,46.207 30.966,47.368C30.145,47.948 29.464,48.386 28.992,48.677C28.756,48.822 28.573,48.93 28.451,49.001C28.39,49.036 28.345,49.062 28.316,49.078C28.301,49.086 28.291,49.092 28.284,49.096C28.281,49.097 28.279,49.098 28.278,49.099C28.278,49.099 28.278,49.099 28.278,49.099C28.278,49.099 28.278,49.099 28.278,49.099C28.279,49.099 28.279,49.099 29,50.414C29.72,51.73 29.721,51.73 29.721,51.729C29.722,51.729 29.722,51.729 29.723,51.728C29.724,51.728 29.725,51.727 29.727,51.726C29.731,51.724 29.735,51.722 29.741,51.718C29.752,51.712 29.768,51.703 29.787,51.692C29.827,51.67 29.883,51.638 29.955,51.596C30.099,51.513 30.305,51.391 30.565,51.231C31.084,50.911 31.819,50.439 32.697,49.819C34.451,48.579 36.791,46.741 39.135,44.341C43.805,39.56 48.625,32.407 48.625,23.227L45.625,23.227ZM29,50.414C29.72,49.099 29.721,49.099 29.721,49.099C29.721,49.099 29.721,49.099 29.721,49.099C29.721,49.099 29.721,49.099 29.721,49.099C29.72,49.098 29.718,49.097 29.715,49.096C29.708,49.092 29.698,49.086 29.683,49.078C29.654,49.062 29.609,49.036 29.548,49.001C29.426,48.93 29.243,48.822 29.007,48.677C28.535,48.386 27.854,47.948 27.033,47.368C25.388,46.207 23.197,44.484 21.01,42.245C16.617,37.747 12.375,31.307 12.375,23.227L9.375,23.227C9.375,32.407 14.194,39.56 18.864,44.341C21.208,46.741 23.548,48.579 25.302,49.819C26.18,50.439 26.915,50.911 27.434,51.231C27.694,51.391 27.9,51.513 28.044,51.596C28.116,51.638 28.172,51.67 28.212,51.692C28.231,51.703 28.247,51.712 28.258,51.718C28.264,51.722 28.268,51.724 28.272,51.726C28.274,51.727 28.275,51.728 28.276,51.728C28.277,51.729 28.277,51.729 28.278,51.729C28.278,51.73 28.279,51.73 29,50.414ZM12.375,23.227C12.375,18.818 14.126,14.589 17.244,11.471L15.123,9.35C11.442,13.03 9.375,18.022 9.375,23.227L12.375,23.227ZM17.244,11.471C20.362,8.353 24.59,6.602 29,6.602L29,3.602C23.795,3.602 18.803,5.669 15.123,9.35L17.244,11.471ZM29,6.602C33.409,6.602 37.637,8.353 40.755,11.471L42.877,9.35C39.196,5.669 34.204,3.602 29,3.602L29,6.602ZM40.755,11.471C43.873,14.589 45.625,18.818 45.625,23.227L48.625,23.227C48.625,18.022 46.557,13.03 42.877,9.35L40.755,11.471Z" fill="#FFFFFF"/>
</svg>
