<svg width="24" height="30" viewBox="0 0 24 30" fill="none" xmlns="http://www.w3.org/2000/svg" xmlns:xlink="http://www.w3.org/1999/xlink">
<path d="M11.747,28.1C8.527,28.1 5.842,26.996 3.692,24.787C1.542,22.578 0.467,19.828 0.467,16.538C0.467,14.188 1.401,11.632 3.269,8.871C5.137,6.11 7.963,3.119 11.747,-0.1C15.53,3.119 18.356,6.11 20.224,8.871C22.093,11.632 23.027,14.188 23.027,16.538C23.027,19.828 21.952,22.578 19.801,24.787C17.651,26.996 14.966,28.1 11.747,28.1ZM11.747,25.28C14.191,25.28 16.212,24.452 17.81,22.795C19.408,21.138 20.207,19.052 20.207,16.538C20.207,14.822 19.496,12.884 18.074,10.722C16.652,8.56 14.543,6.198 11.747,3.636C8.95,6.198 6.841,8.56 5.419,10.722C3.998,12.884 3.287,14.822 3.287,16.538C3.287,19.052 4.086,21.138 5.684,22.795C7.282,24.452 9.303,25.28 11.747,25.28Z" fill="#333333"/>
<path d="M11.747,25.28C14.191,25.28 16.212,24.452 17.81,22.795C19.408,21.138 20.207,19.052 20.207,16.538C20.207,14.822 19.496,12.884 18.074,10.722C16.652,8.56 14.543,6.198 11.747,3.636C8.95,6.198 6.841,8.56 5.419,10.722C3.998,12.884 3.287,14.822 3.287,16.538C3.287,19.052 4.086,21.138 5.684,22.795C7.282,24.452 9.303,25.28 11.747,25.28Z" fill="#333333"/>
<path d="M21.812,16.559C21.812,22.166 17.267,26.711 11.66,26.711C6.053,26.711 1.508,22.166 1.508,16.559C1.508,10.953 6.053,6.407 11.66,6.407C17.267,6.407 21.812,10.953 21.812,16.559Z" fill="#333333"/>
<path d="M11.636,19.825L13.659,16.918L11.857,16.918L13.122,12.493L9.74,12.493L9.74,17.55L11.636,17.55L11.636,19.825ZM10.372,23.871L10.372,18.814L8.476,18.814L8.476,11.229L14.797,11.229L13.532,15.654L16.061,15.654L10.372,23.871Z" transform="rotate(0.393 12.268 17.55)" fill="#FFEB3B"/>
</svg>
