<svg width="54" height="66" viewBox="0 0 54 66" fill="none" xmlns="http://www.w3.org/2000/svg" xmlns:xlink="http://www.w3.org/1999/xlink">
<path d="M26.101,65.546C18.618,65.546 12.378,62.979 7.38,57.844C2.382,52.71 -0.117,46.319 -0.117,38.672C-0.117,33.21 2.054,27.27 6.396,20.852C10.739,14.434 17.307,7.483 26.101,0C34.895,7.483 41.463,14.434 45.806,20.852C50.148,27.27 52.32,33.21 52.32,38.672C52.32,46.319 49.821,52.71 44.823,57.844C39.825,62.979 33.584,65.546 26.101,65.546ZM26.101,58.991C31.782,58.991 36.479,57.066 40.194,53.215C43.908,49.364 45.765,44.517 45.765,38.672C45.765,34.685 44.113,30.178 40.808,25.153C37.503,20.128 32.601,14.639 26.101,8.685C19.601,14.639 14.699,20.128 11.394,25.153C8.09,30.178 6.437,34.685 6.437,38.672C6.437,44.517 8.295,49.364 12.009,53.215C15.723,57.066 20.421,58.991 26.101,58.991Z" fill="#333333"/>
<path d="M26.101,58.991C31.782,58.991 36.479,57.066 40.194,53.215C43.908,49.364 45.765,44.517 45.765,38.672C45.765,34.685 44.113,30.178 40.808,25.153C37.503,20.128 32.601,14.639 26.101,8.685C19.601,14.639 14.699,20.128 11.394,25.153C8.09,30.178 6.437,34.685 6.437,38.672C6.437,44.517 8.295,49.364 12.009,53.215C15.723,57.066 20.421,58.991 26.101,58.991Z" fill="#333333"/>
<path d="M49.498,38.718C49.498,51.75 38.933,62.314 25.901,62.314C12.869,62.314 2.305,51.75 2.305,38.718C2.305,25.686 12.869,15.121 25.901,15.121C38.933,15.121 49.498,25.686 49.498,38.718Z" fill="#333333"/>
<path d="M33.676,35.437C33.157,35.961 32.562,36.359 31.89,36.631C31.218,36.903 30.546,37.038 29.874,37.038C29.202,37.038 28.54,36.907 27.887,36.645C27.235,36.383 26.649,35.981 26.131,35.437L23.971,33.254C23.683,32.963 23.356,32.745 22.992,32.599C22.627,32.454 22.252,32.381 21.868,32.381C21.485,32.381 21.11,32.454 20.745,32.599C20.381,32.745 20.054,32.963 19.766,33.254L17.606,35.437L15.965,33.778L18.125,31.595C18.643,31.071 19.229,30.678 19.881,30.416C20.534,30.154 21.197,30.023 21.868,30.023C22.54,30.023 23.198,30.154 23.841,30.416C24.484,30.678 25.065,31.071 25.583,31.595L27.743,33.778C28.051,34.089 28.386,34.317 28.751,34.462C29.116,34.608 29.49,34.681 29.874,34.681C30.258,34.681 30.638,34.608 31.012,34.462C31.386,34.317 31.727,34.089 32.034,33.778L34.194,31.595L35.836,33.254L33.676,35.437ZM33.676,41.259C33.157,41.783 32.567,42.176 31.905,42.438C31.242,42.7 30.575,42.831 29.903,42.831C29.231,42.831 28.564,42.7 27.902,42.438C27.239,42.176 26.649,41.783 26.131,41.259L23.971,39.076C23.683,38.785 23.356,38.567 22.992,38.421C22.627,38.275 22.252,38.203 21.868,38.203C21.485,38.203 21.11,38.275 20.745,38.421C20.381,38.567 20.054,38.785 19.766,39.076L17.606,41.259L15.965,39.629L18.125,37.417C18.643,36.893 19.229,36.5 19.881,36.238C20.534,35.976 21.197,35.845 21.868,35.845C22.54,35.845 23.198,35.976 23.841,36.238C24.484,36.5 25.065,36.893 25.583,37.417L27.743,39.6C28.051,39.91 28.386,40.138 28.751,40.284C29.116,40.429 29.49,40.502 29.874,40.502C30.258,40.502 30.638,40.429 31.012,40.284C31.386,40.138 31.727,39.91 32.034,39.6L34.194,37.417L35.836,39.076L33.676,41.259ZM33.647,47.08C33.129,47.604 32.543,47.997 31.89,48.259C31.238,48.521 30.575,48.652 29.903,48.652C29.231,48.652 28.564,48.521 27.902,48.259C27.239,47.997 26.649,47.604 26.131,47.08L23.942,44.897C23.654,44.606 23.328,44.388 22.963,44.242C22.598,44.097 22.224,44.024 21.84,44.024C21.456,44.024 21.081,44.097 20.717,44.242C20.352,44.388 20.025,44.606 19.737,44.897L17.578,47.08L15.965,45.45L18.125,43.238C18.643,42.714 19.229,42.321 19.881,42.059C20.534,41.797 21.197,41.666 21.868,41.666C22.54,41.666 23.198,41.797 23.841,42.059C24.484,42.321 25.065,42.714 25.583,43.238L27.743,45.421C28.051,45.732 28.391,45.96 28.766,46.105C29.14,46.251 29.519,46.324 29.903,46.324C30.287,46.324 30.662,46.251 31.026,46.105C31.391,45.96 31.727,45.732 32.034,45.421L34.194,43.238L35.807,44.897L33.647,47.08Z" fill="#FFFFFF"/>
</svg>
