<svg width="24" height="30" viewBox="0 0 24 30" fill="none" xmlns="http://www.w3.org/2000/svg" xmlns:xlink="http://www.w3.org/1999/xlink">
<path d="M11.183,28.104C7.963,28.104 5.277,27 3.126,24.79C0.975,22.58 -0.1,19.83 -0.1,16.539C-0.1,14.188 0.834,11.632 2.703,8.87C4.572,6.108 7.399,3.116 11.183,-0.104C14.968,3.116 17.795,6.108 19.664,8.87C21.532,11.632 22.467,14.188 22.467,16.539C22.467,19.83 21.391,22.58 19.24,24.79C17.089,27 14.404,28.104 11.183,28.104ZM11.183,25.284C13.628,25.284 15.65,24.455 17.248,22.798C18.847,21.14 19.646,19.054 19.646,16.539C19.646,14.823 18.935,12.883 17.513,10.721C16.09,8.558 13.981,6.196 11.183,3.633C8.386,6.196 6.276,8.558 4.854,10.721C3.432,12.883 2.721,14.823 2.721,16.539C2.721,19.054 3.52,21.14 5.118,22.798C6.717,24.455 8.739,25.284 11.183,25.284Z" fill="#333333"/>
<path d="M11.183,25.284C13.628,25.284 15.65,24.455 17.248,22.798C18.847,21.14 19.646,19.054 19.646,16.539C19.646,14.823 18.935,12.883 17.513,10.721C16.09,8.558 13.981,6.196 11.183,3.633C8.386,6.196 6.276,8.558 4.854,10.721C3.432,12.883 2.721,14.823 2.721,16.539C2.721,19.054 3.52,21.14 5.118,22.798C6.717,24.455 8.739,25.284 11.183,25.284Z" fill="#333333"/>
<circle cx="11.096" cy="16.561" r="10.155" fill="#333333"/>
<path d="M7.489,17.489C7.489,18.025 7.594,18.533 7.804,19.013C8.015,19.492 8.315,19.913 8.706,20.274C8.696,20.222 8.691,20.176 8.691,20.134L8.691,19.995C8.691,19.665 8.751,19.356 8.872,19.067C8.992,18.778 9.167,18.515 9.398,18.278L11.096,16.56L12.795,18.278C13.025,18.515 13.201,18.778 13.321,19.067C13.441,19.356 13.501,19.665 13.501,19.995L13.501,20.134C13.501,20.176 13.496,20.222 13.486,20.274C13.877,19.913 14.178,19.492 14.388,19.013C14.599,18.533 14.704,18.025 14.704,17.489C14.704,16.973 14.611,16.486 14.426,16.027C14.241,15.568 13.972,15.158 13.622,14.797C13.421,14.931 13.211,15.031 12.99,15.098C12.77,15.165 12.544,15.199 12.314,15.199C11.693,15.199 11.154,14.987 10.698,14.565C10.242,14.142 9.979,13.621 9.909,13.002C9.518,13.342 9.172,13.696 8.872,14.062C8.571,14.428 8.318,14.799 8.112,15.176C7.907,15.552 7.752,15.936 7.646,16.328C7.541,16.72 7.489,17.107 7.489,17.489ZM11.096,18.293L10.239,19.16C10.129,19.273 10.044,19.402 9.984,19.546C9.924,19.691 9.894,19.84 9.894,19.995C9.894,20.325 10.011,20.609 10.247,20.846C10.482,21.083 10.766,21.202 11.096,21.202C11.427,21.202 11.71,21.083 11.946,20.846C12.181,20.609 12.299,20.325 12.299,19.995C12.299,19.83 12.269,19.678 12.209,19.539C12.149,19.4 12.063,19.273 11.953,19.16L11.096,18.293ZM11.096,10.681L11.096,12.723C11.096,13.074 11.214,13.368 11.45,13.605C11.685,13.843 11.973,13.961 12.314,13.961C12.494,13.961 12.662,13.922 12.817,13.845C12.973,13.768 13.111,13.652 13.231,13.497L13.501,13.157C14.243,13.59 14.829,14.193 15.26,14.967C15.691,15.74 15.907,16.581 15.907,17.489C15.907,18.871 15.441,20.042 14.509,21.001C13.577,21.96 12.439,22.44 11.096,22.44C9.753,22.44 8.616,21.96 7.684,21.001C6.752,20.042 6.286,18.871 6.286,17.489C6.286,16.158 6.719,14.895 7.586,13.698C8.453,12.502 9.623,11.496 11.096,10.681Z" fill="#FFA726"/>
</svg>
