<svg width="34" height="34" viewBox="0 0 34 34" fill="none" xmlns="http://www.w3.org/2000/svg" xmlns:xlink="http://www.w3.org/1999/xlink">
<path d="M26.523,30.217L28.456,30.217C28.821,30.217 29.17,30.073 29.427,29.815C29.685,29.558 29.829,29.208 29.829,28.844L29.829,14.456C29.829,13.77 30.322,13.145 31.004,13.077C31.186,13.058 31.371,13.078 31.545,13.134C31.72,13.191 31.88,13.284 32.017,13.407C32.153,13.53 32.262,13.68 32.336,13.848C32.411,14.015 32.45,14.197 32.45,14.38L32.45,28.844C32.45,29.903 32.029,30.919 31.28,31.668C30.531,32.417 29.515,32.837 28.456,32.837L26.523,32.837C26.175,32.837 25.842,32.699 25.596,32.454C25.35,32.208 25.212,31.875 25.212,31.527C25.212,31.18 25.35,30.847 25.596,30.601C25.842,30.355 26.175,30.217 26.523,30.217ZM3.993,32.837C2.934,32.837 1.919,32.417 1.17,31.668C0.421,30.919 0,29.903 0,28.844L0,5.235C0,4.176 0.421,3.161 1.17,2.412C1.919,1.663 2.934,1.242 3.993,1.242L6.388,1.242C6.405,0.908 6.549,0.593 6.79,0.362C7.032,0.131 7.353,0.001 7.688,0C8.39,0 8.956,0.55 8.993,1.242C8.998,1.242 8.998,1.289 8.998,1.289L8.998,3.862C8.978,4.197 8.832,4.511 8.588,4.74C8.345,4.97 8.023,5.099 7.688,5.099C7.354,5.098 7.034,4.97 6.792,4.739C6.55,4.509 6.406,4.196 6.388,3.862L3.993,3.862C3.629,3.862 3.28,4.007 3.022,4.264C2.765,4.522 2.62,4.871 2.62,5.235L2.62,8.353L29.829,8.353L29.829,5.235C29.829,4.871 29.685,4.522 29.427,4.264C29.17,4.007 28.821,3.862 28.456,3.862L26.061,3.862C26.044,4.196 25.9,4.509 25.658,4.739C25.416,4.97 25.095,5.098 24.762,5.099C24.06,5.099 23.494,4.549 23.457,3.862L17.53,3.862C17.488,4.549 16.922,5.099 16.225,5.099C15.528,5.099 14.962,4.549 14.92,3.862L12.504,3.862C11.837,3.862 11.222,3.407 11.114,2.749C10.977,1.911 11.686,1.242 12.484,1.242L14.92,1.242C14.962,0.55 15.528,0 16.225,0C16.922,0 17.488,0.55 17.53,1.242L23.457,1.242C23.474,0.907 23.618,0.591 23.861,0.36C24.104,0.129 24.426,0 24.762,0C25.459,0 26.025,0.55 26.061,1.242L28.456,1.242C29.515,1.242 30.531,1.663 31.28,2.412C32.029,3.161 32.45,4.176 32.45,5.235L32.45,9.171C32.45,10.167 31.643,10.974 30.647,10.974L2.62,10.974L2.62,28.844C2.62,29.208 2.765,29.558 3.022,29.815C3.28,30.073 3.629,30.217 3.993,30.217L5.927,30.217C6.275,30.217 6.608,30.355 6.854,30.601C7.099,30.847 7.237,31.18 7.237,31.527C7.237,31.875 7.099,32.208 6.854,32.454C6.608,32.699 6.275,32.837 5.927,32.837L3.993,32.837Z" fill="#FFFFFF"/>
<path d="M16.225,15.148C11.348,15.148 7.381,19.116 7.381,23.991C7.381,28.868 11.349,32.835 16.225,32.835C21.102,32.835 25.069,28.868 25.069,23.991C25.069,19.116 21.101,15.148 16.225,15.148ZM16.225,30.465C12.656,30.465 9.753,27.561 9.753,23.992C9.753,20.423 12.656,17.52 16.225,17.52C19.794,17.52 22.697,20.423 22.697,23.992C22.697,27.561 19.794,30.465 16.225,30.465Z" fill="#FFFFFF"/>
<path d="M19.184,20.65C18.823,20.647 18.475,20.787 18.218,21.04L15.199,24.058L14.211,23.07C13.699,22.559 12.804,22.56 12.293,23.07C11.768,23.595 11.771,24.464 12.293,24.988L14.249,26.942C14.375,27.069 14.524,27.169 14.688,27.237C14.853,27.305 15.029,27.34 15.208,27.34C15.583,27.34 15.932,27.198 16.189,26.939L20.151,22.975C20.678,22.449 20.677,21.564 20.151,21.04C19.894,20.787 19.546,20.647 19.184,20.65Z" fill="#FFFFFF"/>
</svg>
