<svg width="580" height="580" viewBox="0 0 580 580" fill="none" xmlns="http://www.w3.org/2000/svg" xmlns:xlink="http://www.w3.org/1999/xlink">
<circle cx="290" cy="290" r="289.6" fill="#FAA670" fill-opacity="0.25"/>
<circle cx="290" cy="290" r="230.4" fill="#F69454" fill-opacity="0.5"/>
<circle cx="290" cy="290" r="168" fill="#F69454" fill-opacity="0.75"/>
<circle cx="290" cy="290" r="131.2" fill="#FFA726" fill-opacity="0.75"/>
<g style="isolation:isolate">
<path d="M486.533,285.869C486.533,396.088 397.183,485.44 286.962,485.44C191.335,482.668 99.865,400.9 99.865,285.869C99.865,224.889 155.546,218.293 189.949,186.084C217.667,160.133 242.613,96 291.12,96C401.339,96 486.533,186.084 486.533,285.869Z" fill="#F8F8F8"/>
</g>
<g filter="url(#filter166_1465)">
<path d="M306.383,416.144C306.383,416.144 216.186,338.534 214.913,276.168C213.89,226.042 256.247,186.084 306.383,186.084C356.519,186.084 397.853,226.032 397.853,276.168C397.853,342.691 306.383,416.144 306.383,416.144Z" fill="#FFFFFF"/>
</g>
<circle cx="307.751" cy="162.524" r="9.701" fill="#FABE98"/>
<circle cx="446.341" cy="251.222" r="6.93" fill="#FEE9DB"/>
<circle cx="359.029" cy="457.721" r="8.315" fill="#F79E65"/>
<path d="M420.009,382.883C427.663,382.883 433.868,376.678 433.868,369.023C433.868,361.369 427.663,355.164 420.009,355.164C412.355,355.164 406.15,361.369 406.15,369.023C406.15,376.678 412.355,382.883 420.009,382.883ZM420.009,377.338C424.602,377.338 428.325,373.615 428.325,369.023C428.325,364.43 424.602,360.708 420.009,360.708C415.417,360.708 411.694,364.43 411.694,369.023C411.694,373.615 415.417,377.338 420.009,377.338Z" clip-rule="evenodd" fill-rule="evenodd" fill="#F79E65"/>
<path d="M231.526,454.95C239.18,454.95 245.385,448.745 245.385,441.091C245.385,433.436 239.18,427.231 231.526,427.231C223.872,427.231 217.667,433.436 217.667,441.091C217.667,448.745 223.872,454.95 231.526,454.95ZM231.526,449.406C236.118,449.406 239.841,445.683 239.841,441.091C239.841,436.498 236.118,432.775 231.526,432.775C226.933,432.775 223.21,436.498 223.21,441.091C223.21,445.683 226.933,449.406 231.526,449.406Z" clip-rule="evenodd" fill-rule="evenodd" fill="#FABE98"/>
<path d="M505.935,335.762C512.059,335.762 517.023,330.798 517.023,324.675C517.023,318.551 512.059,313.587 505.935,313.587C499.812,313.587 494.848,318.551 494.848,324.675C494.848,330.798 499.812,335.762 505.935,335.762ZM505.935,332.99C510.528,332.99 514.251,329.267 514.251,324.675C514.251,320.082 510.528,316.359 505.935,316.359C501.343,316.359 497.62,320.082 497.62,324.675C497.62,329.267 501.343,332.99 505.935,332.99Z" clip-rule="evenodd" fill-rule="evenodd" fill="#E47B37"/>
<path d="M198.264,208.258C205.918,208.258 212.123,202.053 212.123,194.399C212.123,186.745 205.918,180.54 198.264,180.54C190.61,180.54 184.405,186.745 184.405,194.399C184.405,202.053 190.61,208.258 198.264,208.258ZM198.264,204.794C204.005,204.794 208.658,200.14 208.658,194.399C208.658,188.659 204.005,184.005 198.264,184.005C192.523,184.005 187.87,188.659 187.87,194.399C187.87,200.14 192.523,204.794 198.264,204.794Z" clip-rule="evenodd" fill-rule="evenodd" fill="#FABE98"/>
<circle cx="171.932" cy="348.235" r="6.93" fill="#FEE9DB"/>
<circle cx="88.777" cy="298.342" r="23.56" fill="#F79E65"/>
<circle cx="307.751" cy="276.168" r="26.332" fill="#E47B37"/>
<defs>
<filter id="filter166_1465" x="189.89502" y="161.083984" width="141.47892" height="165.030258" filterUnits="userSpaceOnUse" color-interpolation-filters="sRGB">
<feFlood flood-opacity="0" result="BackgroundImageFix"/>
<feColorMatrix in="SourceAlpha" type="matrix" values="0 0 0 0 0 0 0 0 0 0 0 0 0 0 0 0 0 0 127 0" result="hardAlpha"/>
<feMorphology radius="0" operator="dilate" in="SourceAlpha" result="0dropshadow"/>
<feOffset dx="5.76" dy="10.080001"/>
<feGaussianBlur stdDeviation="12.5"/>
<feComposite in2="hardAlpha" operator="out"/>
<feColorMatrix type="matrix" values="0 0 0 0 1 0 0 0 0 0.847059 0 0 0 0 0.623529 0 0 0 0.54 0"/>
<feBlend mode="normal" in2="BackgroundImageFix" result="0dropshadow"/>
<feBlend mode="normal" in="SourceGraphic" in2="0dropshadow" result="shape"/>
</filter>
</defs>
</svg>
