<svg width="54" height="68" viewBox="0 0 54 68" fill="none" xmlns="http://www.w3.org/2000/svg" xmlns:xlink="http://www.w3.org/1999/xlink">
<path d="M26.661,67.154C18.937,67.154 12.496,64.54 7.338,59.31C2.179,54.081 -0.4,47.573 -0.4,39.785C-0.4,34.222 1.841,28.172 6.323,21.636C10.805,15.1 17.584,8.021 26.661,0.4C35.738,8.021 42.518,15.1 47,21.636C51.482,28.172 53.723,34.222 53.723,39.785C53.723,47.573 51.144,54.081 45.985,59.31C40.826,64.54 34.385,67.154 26.661,67.154ZM26.661,60.479C32.525,60.479 37.373,58.518 41.207,54.596C45.041,50.674 46.957,45.737 46.957,39.785C46.957,35.724 45.252,31.135 41.841,26.017C38.43,20.899 33.37,15.308 26.661,9.245C19.952,15.308 14.892,20.899 11.481,26.017C8.07,31.135 6.365,35.724 6.365,39.785C6.365,45.737 8.282,50.674 12.116,54.596C15.949,58.518 20.798,60.479 26.661,60.479Z" fill="#333333"/>
<path d="M26.661,60.479C32.525,60.479 37.373,58.518 41.207,54.596C45.041,50.674 46.957,45.737 46.957,39.785C46.957,35.724 45.252,31.135 41.841,26.017C38.43,20.899 33.37,15.308 26.661,9.245C19.952,15.308 14.892,20.899 11.481,26.017C8.07,31.135 6.365,35.724 6.365,39.785C6.365,45.737 8.282,50.674 12.116,54.596C15.949,58.518 20.798,60.479 26.661,60.479Z" fill="#333333"/>
<path d="M50.81,39.831C50.81,53.104 39.905,63.863 26.454,63.863C13.003,63.863 2.099,53.104 2.099,39.831C2.099,26.559 13.003,15.8 26.454,15.8C39.905,15.8 50.81,26.559 50.81,39.831Z" fill="#333333"/>
<path d="M18.781,47.948C17.73,46.91 16.349,45.039 15.754,43.678C15.158,42.318 14.86,40.911 14.86,39.458C14.86,38.005 15.141,36.57 15.701,35.151C16.261,33.733 17.172,32.401 18.433,31.156C19.251,30.349 20.261,29.657 21.463,29.08C22.666,28.504 24.091,28.048 25.737,27.714C27.383,27.379 29.263,27.178 31.377,27.108C33.49,27.039 35.855,27.12 38.47,27.351C38.657,29.795 38.716,32.044 38.645,34.096C38.575,36.149 38.383,37.999 38.067,39.648C37.752,41.297 37.308,42.739 36.736,43.972C36.164,45.206 35.458,46.238 34.617,47.068C33.379,48.291 32.066,49.184 30.676,49.749C29.287,50.314 27.868,50.597 26.42,50.597C24.902,50.597 23.419,50.303 21.971,49.715C21.855,49.667 21.74,49.619 21.626,49.569C20.324,48.994 19.747,48.902 18.781,47.948ZM22.146,46.722C22.824,47.115 23.518,47.397 24.231,47.57C24.943,47.743 25.673,47.829 26.42,47.829C27.494,47.829 28.557,47.616 29.608,47.19C30.659,46.763 31.663,46.077 32.62,45.131C33.041,44.716 33.467,44.134 33.899,43.384C34.331,42.635 34.705,41.655 35.02,40.444C35.335,39.233 35.575,37.769 35.738,36.051C35.901,34.333 35.925,32.286 35.808,29.91C34.664,29.864 33.373,29.847 31.937,29.859C30.501,29.87 29.071,29.98 27.646,30.187C26.222,30.395 24.867,30.729 23.583,31.19C22.298,31.652 21.247,32.286 20.43,33.093C19.379,34.131 18.655,35.157 18.258,36.172C17.861,37.186 17.663,38.167 17.663,39.112C17.663,40.473 17.925,41.666 18.451,42.692C18.976,43.719 19.463,44.414 19.86,44.829C20.84,42.984 22.111,41.24 23.723,39.544C25.334,37.849 27.214,36.46 29.363,35.376C27.681,36.829 26.216,38.472 24.966,40.306C23.717,42.139 22.777,44.278 22.146,46.722Z" transform="rotate(20.113 26.767 40.177)" fill="#28A745" stroke="#FFFFFF" stroke-width="1.916" stroke-miterlimit="3.999327"/>
<path d="M18.781,47.948C18.493,48.531 18.093,50.079 17.963,50.695C18.642,51.638 19.798,53.007 21.076,53.27C21.013,52.41 21.243,50.509 21.626,49.569C20.324,48.994 19.747,48.902 18.781,47.948Z" transform="rotate(20.113 26.767 40.177)" fill="#28A745" stroke="#FFFFFF" stroke-width="1.916" stroke-miterlimit="3.999327"/>
</svg>
