<svg width="56" height="70" viewBox="0 0 56 70" fill="none" xmlns="http://www.w3.org/2000/svg" xmlns:xlink="http://www.w3.org/1999/xlink">
<path d="M28.069,69.8C20.211,69.8 13.658,67.104 8.409,61.712C3.161,56.321 0.537,49.61 0.537,41.58C0.537,35.844 2.817,29.607 7.377,22.867C11.937,16.128 18.834,8.829 28.069,0.971C37.303,8.829 44.2,16.128 48.76,22.867C53.32,29.607 55.6,35.844 55.6,41.58C55.6,49.61 52.976,56.321 47.728,61.712C42.48,67.104 35.927,69.8 28.069,69.8ZM28.069,62.917C34.034,62.917 38.967,60.895 42.867,56.851C46.767,52.808 48.717,47.717 48.717,41.58C48.717,37.393 46.982,32.661 43.512,27.384C40.042,22.107 34.894,16.343 28.069,10.091C21.243,16.343 16.095,22.107 12.625,27.384C9.155,32.661 7.42,37.393 7.42,41.58C7.42,47.717 9.37,52.808 13.27,56.851C17.171,60.895 22.104,62.917 28.069,62.917Z" fill="#333333"/>
<path d="M28.069,62.917C34.034,62.917 38.967,60.895 42.867,56.851C46.767,52.808 48.717,47.717 48.717,41.58C48.717,37.393 46.982,32.661 43.512,27.384C40.042,22.107 34.894,16.343 28.069,10.091C21.243,16.343 16.095,22.107 12.625,27.384C9.155,32.661 7.42,37.393 7.42,41.58C7.42,47.717 9.37,52.808 13.27,56.851C17.171,60.895 22.104,62.917 28.069,62.917Z" fill="#333333"/>
<path d="M52.637,41.63C52.637,55.314 41.543,66.408 27.858,66.408C14.174,66.408 3.08,55.314 3.08,41.63C3.08,27.945 14.174,16.851 27.858,16.851C41.543,16.851 52.637,27.945 52.637,41.63Z" fill="#333333"/>
<path d="M27.802,49.603L32.739,42.507L28.342,42.507L31.428,31.708L23.174,31.708L23.174,44.049L27.802,44.049L27.802,49.603ZM24.717,59.477L24.717,47.135L20.089,47.135L20.089,28.622L35.516,28.622L32.43,39.421L38.601,39.421L24.717,59.477Z" transform="rotate(0.393 29.345 44.049)" fill="#FFFFFF"/>
</svg>
