<svg width="54" height="68" viewBox="0 0 54 68" fill="none" xmlns="http://www.w3.org/2000/svg" xmlns:xlink="http://www.w3.org/1999/xlink">
<path d="M26.938,67.346C19.25,67.346 12.838,64.708 7.703,59.433C2.568,54.157 0,47.591 0,39.734C0,34.122 2.231,28.019 6.692,21.424C11.154,14.83 17.903,7.689 26.938,0C35.974,7.689 42.723,14.83 47.184,21.424C51.646,28.019 53.877,34.122 53.877,39.734C53.877,47.591 51.309,54.157 46.174,59.433C41.039,64.708 34.627,67.346 26.938,67.346ZM26.938,60.611C32.775,60.611 37.601,58.633 41.418,54.676C45.234,50.72 47.142,45.739 47.142,39.734C47.142,35.637 45.444,31.007 42.049,25.844C38.654,20.681 33.617,15.041 26.938,8.923C20.26,15.041 15.223,20.681 11.828,25.844C8.432,31.007 6.735,35.637 6.735,39.734C6.735,45.739 8.643,50.72 12.459,54.676C16.275,58.633 21.102,60.611 26.938,60.611Z" fill="#333333"/>
<path d="M26.938,60.611C32.775,60.611 37.601,58.633 41.418,54.676C45.234,50.72 47.142,45.739 47.142,39.734C47.142,35.637 45.444,31.007 42.049,25.844C38.654,20.681 33.617,15.041 26.938,8.923C20.26,15.041 15.223,20.681 11.828,25.844C8.432,31.007 6.735,35.637 6.735,39.734C6.735,45.739 8.643,50.72 12.459,54.676C16.275,58.633 21.102,60.611 26.938,60.611Z" fill="#333333"/>
<path d="M50.975,39.781C50.975,53.171 40.121,64.026 26.731,64.026C13.341,64.026 2.486,53.171 2.486,39.781C2.486,26.392 13.341,15.537 26.731,15.537C40.121,15.537 50.975,26.392 50.975,39.781Z" fill="#333333"/>
<path d="M18.118,42.001C18.118,43.281 18.369,44.494 18.872,45.639C19.374,46.784 20.092,47.788 21.025,48.65C21.001,48.526 20.989,48.416 20.989,48.317L20.989,47.985C20.989,47.197 21.133,46.458 21.42,45.768C21.707,45.079 22.126,44.451 22.676,43.885L26.731,39.785L30.787,43.885C31.337,44.451 31.756,45.079 32.043,45.768C32.33,46.458 32.473,47.197 32.473,47.985L32.473,48.317C32.473,48.416 32.461,48.526 32.438,48.65C33.371,47.788 34.088,46.784 34.591,45.639C35.093,44.494 35.344,43.281 35.344,42.001C35.344,40.77 35.123,39.606 34.681,38.51C34.238,37.414 33.598,36.436 32.761,35.574C32.282,35.894 31.78,36.134 31.253,36.294C30.727,36.454 30.189,36.534 29.638,36.534C28.155,36.534 26.869,36.029 25.78,35.02C24.692,34.01 24.064,32.766 23.896,31.289C22.963,32.102 22.138,32.945 21.42,33.819C20.702,34.693 20.098,35.58 19.607,36.479C19.117,37.377 18.746,38.295 18.495,39.231C18.244,40.166 18.118,41.09 18.118,42.001ZM26.731,43.922L24.686,45.99C24.423,46.261 24.219,46.569 24.076,46.913C23.932,47.258 23.86,47.615 23.86,47.985C23.86,48.773 24.141,49.45 24.704,50.016C25.266,50.583 25.942,50.866 26.731,50.866C27.521,50.866 28.197,50.583 28.759,50.016C29.321,49.45 29.602,48.773 29.602,47.985C29.602,47.591 29.531,47.227 29.387,46.895C29.244,46.563 29.04,46.261 28.777,45.99L26.731,43.922ZM26.731,25.748L26.731,30.624C26.731,31.461 27.012,32.163 27.575,32.73C28.137,33.296 28.825,33.579 29.638,33.579C30.069,33.579 30.47,33.487 30.841,33.302C31.211,33.117 31.54,32.84 31.827,32.471L32.473,31.658C34.244,32.693 35.644,34.133 36.672,35.98C37.701,37.827 38.216,39.834 38.216,42.001C38.216,45.301 37.103,48.095 34.878,50.386C32.653,52.676 29.937,53.821 26.731,53.821C23.525,53.821 20.81,52.676 18.585,50.386C16.36,48.095 15.247,45.301 15.247,42.001C15.247,38.824 16.282,35.808 18.351,32.951C20.421,30.095 23.214,27.694 26.731,25.748Z" fill="#FFA726"/>
</svg>
