<svg width="48" height="48" viewBox="0 0 48 48" fill="none" xmlns="http://www.w3.org/2000/svg" xmlns:xlink="http://www.w3.org/1999/xlink">
<path d="M25.511,46.065L25.511,47.361C26.227,47.361 26.807,46.78 26.807,46.065L25.511,46.065ZM4.639,46.065L3.343,46.065C3.343,46.78 3.923,47.361 4.639,47.361L4.639,46.065ZM5.935,8.958C5.935,8.393 6.393,7.935 6.958,7.935L6.958,5.343C4.961,5.343 3.343,6.961 3.343,8.958L5.935,8.958ZM6.958,7.935L23.192,7.935L23.192,5.343L6.958,5.343L6.958,7.935ZM23.192,7.935C23.757,7.935 24.215,8.393 24.215,8.958L26.807,8.958C26.807,6.962 25.189,5.343 23.192,5.343L23.192,7.935ZM24.215,8.958L24.215,46.065L26.807,46.065L26.807,8.958L24.215,8.958ZM25.511,44.769L4.639,44.769L4.639,47.361L25.511,47.361L25.511,44.769ZM5.935,46.065L5.935,8.958L3.343,8.958L3.343,46.065L5.935,46.065Z" fill="#FFFFFF"/>
<line x1="0" y1="44.768" x2="30.149" y2="44.768" stroke="#FFFFFF" stroke-width="1.296" stroke-miterlimit="3.999327" stroke-linecap="round" stroke-linejoin="round"/>
<path d="M4.997,10.425C4.997,8.635 6.448,7.185 8.237,7.185L21.827,7.185C23.617,7.185 25.067,8.635 25.067,10.425L25.067,42.825C25.067,44.614 23.617,46.065 21.827,46.065L8.237,46.065C6.448,46.065 4.997,44.614 4.997,42.825L4.997,10.425Z" fill="#FFFFFF"/>
<line x1="11.596" y1="13.323" x2="18.553" y2="13.323" stroke="#F69454" stroke-width="2.592" stroke-miterlimit="3.999327" stroke-linecap="round" stroke-linejoin="round"/>
<path d="M25.512,22.736C24.796,22.736 24.216,23.316 24.216,24.032C24.216,24.748 24.796,25.328 25.512,25.328L25.512,22.736ZM37.108,24.032L38.404,24.032C38.404,23.316 37.823,22.736 37.108,22.736L37.108,24.032ZM36.809,1.032C36.274,0.556 35.455,0.604 34.979,1.139C34.504,1.674 34.552,2.493 35.087,2.969L36.809,1.032ZM46.384,11.277L47.68,11.277C47.68,10.907 47.522,10.554 47.245,10.308L46.384,11.277ZM42.905,18.234L41.609,18.234C41.609,18.95 42.19,19.53 42.905,19.53L42.905,18.234ZM25.512,25.328L37.108,25.328L37.108,22.736L25.512,22.736L25.512,25.328ZM35.812,24.032L35.812,41.426L38.404,41.426L38.404,24.032L35.812,24.032ZM35.812,41.426C35.812,44.703 38.468,47.36 41.746,47.36L41.746,44.768C39.9,44.768 38.404,43.272 38.404,41.426L35.812,41.426ZM41.746,47.36C45.023,47.36 47.68,44.703 47.68,41.426L45.088,41.426C45.088,43.272 43.592,44.768 41.746,44.768L41.746,47.36ZM47.68,41.426L47.68,18.234L45.088,18.234L45.088,41.426L47.68,41.426ZM35.087,2.969L42.044,9.153L43.766,7.216L36.809,1.032L35.087,2.969ZM42.044,9.153L45.523,12.246L47.245,10.308L43.766,7.216L42.044,9.153ZM45.088,11.277L45.088,18.234L47.68,18.234L47.68,11.277L45.088,11.277ZM41.609,8.185L41.609,18.234L44.201,18.234L44.201,8.185L41.609,8.185ZM42.905,19.53L46.384,19.53L46.384,16.938L42.905,16.938L42.905,19.53Z" fill="#FFFFFF"/>
</svg>
