<svg width="48" height="48" viewBox="0 0 48 48" fill="none" xmlns="http://www.w3.org/2000/svg" xmlns:xlink="http://www.w3.org/1999/xlink">
<path d="M6,10L42,10L42,6L6,6L6,10ZM42,10C43.105,10 44,10.895 44,12L48,12C48,8.686 45.314,6 42,6L42,10ZM44,12L44,36L48,36L48,12L44,12ZM44,36C44,37.105 43.105,38 42,38L42,42C45.314,42 48,39.314 48,36L44,36ZM42,38L6,38L6,42L42,42L42,38ZM6,38C4.895,38 4,37.105 4,36L0,36C0,39.314 2.686,42 6,42L6,38ZM4,36L4,12L0,12L0,36L4,36ZM4,12C4,10.895 4.895,10 6,10L6,6C2.686,6 0,8.686 0,12L4,12Z" fill="#1C1C28"/>
<line x1="2" y1="18" x2="46" y2="18" stroke="#1C1C28" stroke-width="2" stroke-miterlimit="3.999327" stroke-linecap="round" stroke-linejoin="round"/>
</svg>
