<svg width="48" height="48" viewBox="0 0 48 48" fill="none" xmlns="http://www.w3.org/2000/svg" xmlns:xlink="http://www.w3.org/1999/xlink">
<path d="M8,16L40,16L40,12L8,12L8,16ZM40,16C41.105,16 42,16.895 42,18L46,18C46,14.686 43.314,12 40,12L40,16ZM42,18L42,38L46,38L46,18L42,18ZM42,38C42,39.105 41.105,40 40,40L40,44C43.314,44 46,41.314 46,38L42,38ZM40,40L8,40L8,44L40,44L40,40ZM8,40C6.895,40 6,39.105 6,38L2,38C2,41.314 4.686,44 8,44L8,40ZM6,38L6,18L2,18L2,38L6,38ZM6,18C6,16.895 6.895,16 8,16L8,12C4.686,12 2,14.686 2,18L6,18Z" fill="#1C1C28"/>
<path d="M30,42C30,43.105 30.895,44 32,44C33.105,44 34,43.105 34,42L30,42ZM28,6L28,4L28,6ZM20,6L20,4L20,6ZM16,10L14,10L16,10ZM14,42C14,43.105 14.895,44 16,44C17.105,44 18,43.105 18,42L14,42ZM34,42L34,10L30,10L30,42L34,42ZM34,10C34,8.409 33.368,6.883 32.243,5.757L29.414,8.586C29.789,8.961 30,9.47 30,10L34,10ZM32.243,5.757C31.117,4.632 29.591,4 28,4L28,8C28.53,8 29.039,8.211 29.414,8.586L32.243,5.757ZM28,4L20,4L20,8L28,8L28,4ZM20,4C18.409,4 16.883,4.632 15.757,5.757L18.586,8.586C18.961,8.211 19.47,8 20,8L20,4ZM15.757,5.757C14.632,6.883 14,8.409 14,10L18,10C18,9.47 18.211,8.961 18.586,8.586L15.757,5.757ZM14,10L14,42L18,42L18,10L14,10Z" fill="#1C1C28"/>
</svg>
