<svg width="48" height="48" viewBox="0 0 48 48" fill="none" xmlns="http://www.w3.org/2000/svg" xmlns:xlink="http://www.w3.org/1999/xlink">
<path d="M30.586,32.586C29.805,33.367 29.805,34.633 30.586,35.414C31.367,36.195 32.633,36.195 33.414,35.414L30.586,32.586ZM42,24L43.414,25.414C44.195,24.633 44.195,23.367 43.414,22.586L42,24ZM33.414,12.586C32.633,11.805 31.367,11.805 30.586,12.586C29.805,13.367 29.805,14.633 30.586,15.414L33.414,12.586ZM33.414,35.414L43.414,25.414L40.586,22.586L30.586,32.586L33.414,35.414ZM43.414,22.586L33.414,12.586L30.586,15.414L40.586,25.414L43.414,22.586Z" fill="#E53535"/>
<line x1="18" y1="22" x2="42" y2="22" stroke="#E53535" stroke-width="2" stroke-miterlimit="3.999327" stroke-linecap="round" stroke-linejoin="round"/>
<path d="M18,44C19.105,44 20,43.105 20,42C20,40.895 19.105,40 18,40L18,44ZM6,38L4,38L6,38ZM10,6L10,4L10,6ZM18,8C19.105,8 20,7.105 20,6C20,4.895 19.105,4 18,4L18,8ZM18,40L10,40L10,44L18,44L18,40ZM10,40C9.47,40 8.961,39.789 8.586,39.414L5.757,42.243C6.883,43.368 8.409,44 10,44L10,40ZM8.586,39.414C8.211,39.039 8,38.53 8,38L4,38C4,39.591 4.632,41.117 5.757,42.243L8.586,39.414ZM8,38L8,10L4,10L4,38L8,38ZM8,10C8,9.47 8.211,8.961 8.586,8.586L5.757,5.757C4.632,6.883 4,8.409 4,10L8,10ZM8.586,8.586C8.961,8.211 9.47,8 10,8L10,4C8.409,4 6.883,4.632 5.757,5.757L8.586,8.586ZM10,8L18,8L18,4L10,4L10,8Z" fill="#E53535"/>
</svg>
