<svg width="62" height="62" viewBox="0 0 62 62" fill="none" xmlns="http://www.w3.org/2000/svg" xmlns:xlink="http://www.w3.org/1999/xlink">
<path d="M30.816,61.632C47.835,61.632 61.632,47.835 61.632,30.816C61.632,13.797 47.835,0 30.816,0C13.797,0 0,13.797 0,30.816C0,47.835 13.797,61.632 30.816,61.632ZM30.816,57.792C45.715,57.792 57.792,45.714 57.792,30.816C57.792,15.918 45.715,3.84 30.816,3.84C15.918,3.84 3.84,15.918 3.84,30.816C4.433,34.436 5.472,39.072 10.656,42.288C14.304,44.16 16.776,47.017 18.144,50.208C19.747,53.947 22.848,57.648 30.816,57.792Z" clip-rule="evenodd" fill-rule="evenodd" fill="#FFFFFF"/>
<path d="M30.72,10.944C27.872,13.968 21.773,20.986 20.16,24.864C22.816,23.568 30.49,21.197 39.936,22.08C37.984,19.232 33.408,13.018 30.72,10.944Z" fill="#E47B37" stroke="#FFFFFF" stroke-width="0.048" stroke-miterlimit="3.999327"/>
<path d="M17.388,32.112C17.292,33.84 17.715,37.987 20.172,40.752C20.172,40.752 23.58,34.185 28.764,30.192C35.244,25.2 41.628,25.008 41.628,25.008L40.572,23.328C40.572,23.328 32.7,23.568 26.172,26.304C21.084,28.437 17.388,32.112 17.388,32.112Z" fill="#E47B37" stroke="#FFFFFF" stroke-width="0.048" stroke-miterlimit="3.999327"/>
<path d="M42.192,26.016C42.192,26.016 36.912,26.22 30.528,33.216C27.312,36.74 24.672,44.304 24.672,44.304C24.672,44.304 32.832,49.248 40.704,41.568C47.534,33.984 42.192,26.016 42.192,26.016Z" fill="#E47B37" stroke="#FFFFFF" stroke-width="0.048" stroke-miterlimit="3.999327"/>
</svg>
