<svg width="22" height="26" viewBox="0 0 22 26" fill="none" xmlns="http://www.w3.org/2000/svg" xmlns:xlink="http://www.w3.org/1999/xlink">
<path d="M3.071,19.727C2.077,18.733 0.771,16.94 0.208,15.637C-0.356,14.334 -0.637,12.986 -0.637,11.595C-0.637,10.203 -0.372,8.828 0.158,7.47C0.688,6.111 1.549,4.836 2.742,3.643C3.515,2.87 4.471,2.207 5.608,1.655C6.746,1.102 8.093,0.666 9.651,0.346C11.208,0.026 12.986,-0.168 14.985,-0.234C16.984,-0.3 19.221,-0.223 21.695,-0.002C21.872,2.339 21.927,4.493 21.861,6.459C21.794,8.425 21.612,10.198 21.314,11.777C21.016,13.356 20.596,14.737 20.055,15.919C19.514,17.101 18.845,18.089 18.05,18.884C16.879,20.055 15.637,20.911 14.323,21.452C13.008,21.993 11.666,22.264 10.297,22.264C8.861,22.264 7.458,21.982 6.089,21.419C5.979,21.374 5.87,21.327 5.762,21.279C4.53,20.729 3.985,20.641 3.071,19.727ZM6.255,18.553C6.895,18.929 7.552,19.199 8.226,19.365C8.9,19.53 9.59,19.613 10.297,19.613C11.313,19.613 12.318,19.409 13.312,19C14.306,18.592 15.256,17.935 16.162,17.029C16.559,16.631 16.962,16.073 17.371,15.356C17.78,14.638 18.133,13.699 18.431,12.539C18.729,11.379 18.956,9.977 19.111,8.331C19.265,6.686 19.287,4.725 19.177,2.45C18.094,2.406 16.874,2.389 15.515,2.4C14.157,2.411 12.804,2.516 11.457,2.715C10.109,2.914 8.828,3.234 7.613,3.676C6.398,4.118 5.404,4.725 4.631,5.498C3.637,6.492 2.952,7.475 2.577,8.447C2.201,9.419 2.013,10.358 2.013,11.264C2.013,12.567 2.262,13.71 2.759,14.693C3.256,15.676 3.716,16.342 4.091,16.74C5.019,14.973 6.221,13.301 7.746,11.678C9.27,10.054 11.048,8.723 13.08,7.685C11.49,9.077 10.104,10.651 8.922,12.407C7.74,14.163 6.851,16.212 6.255,18.553Z" transform="rotate(20.379 10.625 12.284)" fill="#28A745" stroke="#6FDE88" stroke-width="9.696" stroke-miterlimit="3.999327"/>
<path d="M3.071,19.727C2.799,20.285 2.42,21.768 2.298,22.358C2.94,23.261 4.034,24.573 5.242,24.825C5.182,24.001 5.4,22.18 5.762,21.279C4.53,20.729 3.985,20.641 3.071,19.727Z" transform="rotate(20.379 10.625 12.284)" fill="#28A745" stroke="#6FDE88" stroke-width="9.696" stroke-miterlimit="3.999327"/>
</svg>
