<svg width="42" height="34" viewBox="0 0 42 34" fill="none" xmlns="http://www.w3.org/2000/svg" xmlns:xlink="http://www.w3.org/1999/xlink">
<path d="M20,34C19.737,34.002 19.476,33.951 19.232,33.852C18.988,33.752 18.767,33.605 18.58,33.42L3.04,17.86C1.09,15.89 -0.003,13.231 -0.003,10.46C-0.003,7.689 1.09,5.03 3.04,3.06C5.004,1.101 7.665,0.001 10.44,0.001C13.214,0.001 15.875,1.101 17.84,3.06L20,5.22L22.16,3.06C24.124,1.101 26.785,0.001 29.56,0.001C32.334,0.001 34.995,1.101 36.96,3.06C38.909,5.03 40.002,7.689 40.002,10.46C40.002,13.231 38.909,15.89 36.96,17.86L21.42,33.42C21.233,33.605 21.011,33.752 20.767,33.852C20.524,33.951 20.263,34.002 20,34ZM10.44,4C9.593,3.996 8.754,4.16 7.971,4.483C7.189,4.806 6.478,5.281 5.88,5.88C4.672,7.094 3.994,8.737 3.994,10.45C3.994,12.163 4.672,13.806 5.88,15.02L20,29.16L34.12,15.02C35.328,13.806 36.006,12.163 36.006,10.45C36.006,8.737 35.328,7.094 34.12,5.88C32.887,4.715 31.255,4.067 29.56,4.067C27.864,4.067 26.232,4.715 25,5.88L21.42,9.48C21.234,9.667 21.013,9.816 20.769,9.918C20.525,10.019 20.264,10.072 20,10.072C19.736,10.072 19.474,10.019 19.231,9.918C18.987,9.816 18.766,9.667 18.58,9.48L15,5.88C14.402,5.281 13.691,4.806 12.908,4.483C12.125,4.16 11.286,3.996 10.44,4L10.44,4Z" fill="#1C1C28"/>
</svg>
