<svg width="20" height="18" viewBox="0 0 20 18" fill="none" xmlns="http://www.w3.org/2000/svg" xmlns:xlink="http://www.w3.org/1999/xlink">
<path d="M16.436,4.753C15.93,5.264 15.35,5.652 14.694,5.917C14.038,6.182 13.382,6.315 12.726,6.315C12.071,6.315 11.424,6.187 10.787,5.931C10.15,5.676 9.579,5.283 9.073,4.753L6.965,2.622C6.684,2.338 6.366,2.125 6.01,1.983C5.654,1.841 5.288,1.77 4.913,1.77C4.539,1.77 4.173,1.841 3.817,1.983C3.461,2.125 3.143,2.338 2.862,2.622L0.754,4.753L-0.848,3.133L1.26,1.003C1.766,0.492 2.337,0.108 2.974,-0.148C3.611,-0.403 4.258,-0.531 4.913,-0.531C5.569,-0.531 6.211,-0.403 6.839,-0.148C7.466,0.108 8.033,0.492 8.539,1.003L10.647,3.133C10.947,3.436 11.274,3.659 11.63,3.801C11.986,3.943 12.352,4.014 12.726,4.014C13.101,4.014 13.471,3.943 13.837,3.801C14.202,3.659 14.535,3.436 14.834,3.133L16.942,1.003L18.544,2.622L16.436,4.753ZM16.436,10.434C15.93,10.945 15.354,11.329 14.708,11.584C14.061,11.84 13.41,11.968 12.755,11.968C12.099,11.968 11.448,11.84 10.801,11.584C10.155,11.329 9.579,10.945 9.073,10.434L6.965,8.303C6.684,8.019 6.366,7.806 6.01,7.664C5.654,7.522 5.288,7.451 4.913,7.451C4.539,7.451 4.173,7.522 3.817,7.664C3.461,7.806 3.143,8.019 2.862,8.303L0.754,10.434L-0.848,8.843L1.26,6.684C1.766,6.173 2.337,5.789 2.974,5.534C3.611,5.278 4.258,5.15 4.913,5.15C5.569,5.15 6.211,5.278 6.839,5.534C7.466,5.789 8.033,6.173 8.539,6.684L10.647,8.815C10.947,9.118 11.274,9.34 11.63,9.482C11.986,9.624 12.352,9.695 12.726,9.695C13.101,9.695 13.471,9.624 13.837,9.482C14.202,9.34 14.535,9.118 14.834,8.815L16.942,6.684L18.544,8.303L16.436,10.434ZM16.408,16.115C15.902,16.626 15.331,17.01 14.694,17.266C14.057,17.521 13.41,17.649 12.755,17.649C12.099,17.649 11.448,17.521 10.801,17.266C10.155,17.01 9.579,16.626 9.073,16.115L6.937,13.985C6.656,13.701 6.337,13.487 5.981,13.345C5.625,13.203 5.26,13.132 4.885,13.132C4.511,13.132 4.145,13.203 3.789,13.345C3.433,13.487 3.115,13.701 2.834,13.985L0.726,16.115L-0.848,14.524L1.26,12.365C1.766,11.854 2.337,11.471 2.974,11.215C3.611,10.959 4.258,10.831 4.913,10.831C5.569,10.831 6.211,10.959 6.839,11.215C7.466,11.471 8.033,11.854 8.539,12.365L10.647,14.496C10.947,14.799 11.279,15.021 11.644,15.163C12.01,15.305 12.38,15.376 12.755,15.376C13.129,15.376 13.495,15.305 13.851,15.163C14.207,15.021 14.535,14.799 14.834,14.496L16.942,12.365L18.516,13.985L16.408,16.115Z" fill="#9A9898"/>
</svg>
