<svg width="42" height="42" viewBox="0 0 42 42" fill="none" xmlns="http://www.w3.org/2000/svg" xmlns:xlink="http://www.w3.org/1999/xlink">
<path d="M39.473,1.342C38.701,0.556 37.723,0.004 36.65,-0.25C35.578,-0.504 34.456,-0.449 33.413,-0.092L4.83,9.463C3.677,9.84 2.67,10.566 1.947,11.54C1.225,12.514 0.822,13.689 0.796,14.902C0.769,16.114 1.12,17.305 1.799,18.31C2.478,19.315 3.453,20.085 4.588,20.512L15.172,24.552C15.414,24.644 15.633,24.785 15.817,24.966C16.001,25.147 16.146,25.363 16.243,25.603L20.283,36.208C20.694,37.327 21.441,38.292 22.42,38.971C23.4,39.651 24.565,40.012 25.757,40.005L25.899,40.005C27.113,39.983 28.289,39.582 29.264,38.857C30.238,38.133 30.962,37.121 31.332,35.965L40.887,7.342C41.235,6.309 41.286,5.2 41.036,4.14C40.787,3.08 40.245,2.111 39.473,1.342ZM37.15,6.069L27.494,34.713C27.382,35.075 27.157,35.392 26.852,35.618C26.547,35.843 26.177,35.965 25.798,35.965C25.42,35.971 25.05,35.863 24.736,35.653C24.422,35.444 24.18,35.144 24.04,34.794L20,24.189C19.707,23.418 19.256,22.718 18.675,22.133C18.093,21.548 17.396,21.092 16.627,20.795L6.022,16.755C5.664,16.624 5.357,16.384 5.143,16.068C4.929,15.753 4.82,15.378 4.83,14.998C4.83,14.618 4.952,14.249 5.177,13.943C5.403,13.638 5.72,13.413 6.082,13.301L34.726,3.746C35.055,3.612 35.416,3.576 35.764,3.643C36.113,3.709 36.435,3.875 36.692,4.121C36.948,4.367 37.128,4.682 37.209,5.027C37.291,5.373 37.27,5.735 37.15,6.069Z" fill="#E47B37"/>
</svg>
