<svg width="28" height="28" viewBox="0 0 28 28" fill="none" xmlns="http://www.w3.org/2000/svg" xmlns:xlink="http://www.w3.org/1999/xlink">
<path d="M0.2,27.13L0.2,24.1L24.44,24.1L24.44,27.13L0.2,27.13ZM6.26,21.07C4.593,21.07 3.167,20.477 1.98,19.29C0.793,18.103 0.2,16.677 0.2,15.01L0.2,-0.14L24.44,-0.14C25.273,-0.14 25.987,0.157 26.58,0.75C27.173,1.344 27.47,2.057 27.47,2.89L27.47,7.435C27.47,8.268 27.173,8.982 26.58,9.575C25.987,10.168 25.273,10.465 24.44,10.465L21.41,10.465L21.41,15.01C21.41,16.677 20.817,18.103 19.63,19.29C18.443,20.477 17.016,21.07 15.35,21.07L6.26,21.07ZM6.26,18.04L15.35,18.04C16.183,18.04 16.897,17.743 17.49,17.15C18.083,16.557 18.38,15.843 18.38,15.01L18.38,2.89L3.23,2.89L3.23,15.01C3.23,15.843 3.527,16.557 4.12,17.15C4.713,17.743 5.427,18.04 6.26,18.04ZM21.41,7.435L24.44,7.435L24.44,2.89L21.41,2.89L21.41,7.435ZM6.26,18.04L3.23,18.04L18.38,18.04L6.26,18.04Z" fill="#F69454"/>
</svg>
