<svg width="10" height="20" viewBox="0 0 10 20" fill="none" xmlns="http://www.w3.org/2000/svg" xmlns:xlink="http://www.w3.org/1999/xlink">
<path d="M1.334,19.333C1.022,19.334 0.72,19.225 0.48,19.026C0.345,18.915 0.234,18.777 0.152,18.622C0.07,18.467 0.02,18.297 0.004,18.122C-0.012,17.948 0.006,17.772 0.058,17.604C0.11,17.437 0.195,17.281 0.307,17.146L6.28,10L0.52,2.84C0.41,2.703 0.327,2.546 0.277,2.378C0.227,2.21 0.211,2.033 0.23,1.858C0.248,1.683 0.301,1.514 0.385,1.36C0.47,1.206 0.583,1.07 0.72,0.96C0.858,0.838 1.02,0.747 1.195,0.691C1.37,0.635 1.555,0.616 1.737,0.634C1.92,0.653 2.097,0.71 2.257,0.8C2.417,0.89 2.557,1.013 2.667,1.16L9.107,9.16C9.303,9.398 9.41,9.698 9.41,10.006C9.41,10.315 9.303,10.615 9.107,10.853L2.44,18.853C2.307,19.014 2.137,19.142 1.944,19.225C1.752,19.309 1.543,19.346 1.334,19.333Z" fill="#E53535"/>
</svg>
