<svg width="18" height="34" viewBox="0 0 18 34" fill="none" xmlns="http://www.w3.org/2000/svg" xmlns:xlink="http://www.w3.org/1999/xlink">
<path d="M1.561,-0.061C0.975,-0.646 0.025,-0.646 -0.561,-0.061C-1.146,0.525 -1.146,1.475 -0.561,2.061L1.561,-0.061ZM15.5,16L16.561,17.061C17.146,16.475 17.146,15.525 16.561,14.939L15.5,16ZM-0.561,29.939C-1.146,30.525 -1.146,31.475 -0.561,32.061C0.025,32.646 0.975,32.646 1.561,32.061L-0.561,29.939ZM-0.561,2.061L14.439,17.061L16.561,14.939L1.561,-0.061L-0.561,2.061ZM14.439,14.939L-0.561,29.939L1.561,32.061L16.561,17.061L14.439,14.939Z" fill="#B2B2B2"/>
</svg>
