<svg width="44" height="44" viewBox="0 0 44 44" fill="none" xmlns="http://www.w3.org/2000/svg" xmlns:xlink="http://www.w3.org/1999/xlink">
<path d="M22.785,8.17C22.785,7.333 22.107,6.655 21.27,6.655C20.433,6.655 19.755,7.333 19.755,8.17L22.785,8.17ZM21.27,21.805L19.755,21.805C19.755,22.642 20.433,23.32 21.27,23.32L21.27,21.805ZM31.496,23.32C32.333,23.32 33.011,22.642 33.011,21.805C33.011,20.968 32.333,20.29 31.496,20.29L31.496,23.32ZM41.722,21.805L43.237,21.805L43.237,21.805L41.722,21.805ZM21.27,1.353L21.27,2.868L21.27,1.353ZM19.755,8.17L19.755,21.805L22.785,21.805L22.785,8.17L19.755,8.17ZM21.27,23.32L31.496,23.32L31.496,20.29L21.27,20.29L21.27,23.32ZM40.207,21.805C40.207,24.292 39.718,26.755 38.766,29.052L41.565,30.212C42.669,27.546 43.237,24.69 43.237,21.805L40.207,21.805ZM38.766,29.052C37.814,31.35 36.419,33.437 34.661,35.196L36.803,37.338C38.843,35.299 40.461,32.877 41.565,30.212L38.766,29.052ZM34.661,35.196C32.902,36.954 30.815,38.349 28.517,39.301L29.676,42.1C32.342,40.996 34.763,39.378 36.803,37.338L34.661,35.196ZM28.517,39.301C26.219,40.253 23.757,40.743 21.27,40.743L21.27,43.773C24.155,43.773 27.011,43.204 29.676,42.1L28.517,39.301ZM21.27,40.743C18.783,40.743 16.32,40.253 14.023,39.301L12.863,42.1C15.529,43.204 18.385,43.773 21.27,43.773L21.27,40.743ZM14.023,39.301C11.725,38.349 9.638,36.954 7.879,35.196L5.737,37.338C7.776,39.378 10.198,40.996 12.863,42.1L14.023,39.301ZM7.879,35.196C6.121,33.437 4.726,31.35 3.774,29.052L0.975,30.212C2.079,32.877 3.697,35.299 5.737,37.338L7.879,35.196ZM3.774,29.052C2.822,26.755 2.332,24.292 2.332,21.805L-0.698,21.805C-0.698,24.69 -0.129,27.546 0.975,30.212L3.774,29.052ZM2.332,21.805C2.332,16.782 4.328,11.966 7.879,8.414L5.737,6.272C1.617,10.391 -0.698,15.979 -0.698,21.805L2.332,21.805ZM7.879,8.414C11.431,4.863 16.247,2.868 21.27,2.868L21.27,-0.162C15.444,-0.162 9.856,2.152 5.737,6.272L7.879,8.414ZM21.27,2.868C26.292,2.868 31.109,4.863 34.661,8.414L36.803,6.272C32.684,2.152 27.096,-0.162 21.27,-0.162L21.27,2.868ZM34.661,8.414C38.212,11.966 40.207,16.782 40.207,21.805L43.237,21.805C43.237,15.979 40.923,10.391 36.803,6.272L34.661,8.414Z" fill="#FFFFFF"/>
</svg>
