<svg width="30" height="36" viewBox="0 0 30 36" fill="none" xmlns="http://www.w3.org/2000/svg" xmlns:xlink="http://www.w3.org/1999/xlink">
<path d="M15.256,29.678C15.609,29.649 15.911,29.509 16.162,29.259C16.412,29.008 16.537,28.706 16.537,28.353C16.537,27.94 16.405,27.609 16.14,27.358C15.875,27.108 15.536,26.998 15.123,27.027C13.916,27.115 12.634,26.784 11.279,26.033C9.924,25.282 9.07,23.919 8.716,21.945C8.657,21.621 8.503,21.356 8.252,21.15C8.002,20.944 7.715,20.841 7.391,20.841C6.978,20.841 6.639,20.995 6.374,21.305C6.109,21.614 6.021,21.975 6.109,22.387C6.61,25.068 7.788,26.983 9.644,28.132C11.5,29.281 13.371,29.796 15.256,29.678ZM14.77,34.981C10.734,34.981 7.368,33.596 4.673,30.827C1.978,28.058 0.63,24.611 0.63,20.487C0.63,17.542 1.801,14.338 4.143,10.877C6.485,7.415 10.027,3.667 14.77,-0.369C19.513,3.667 23.055,7.415 25.397,10.877C27.739,14.338 28.91,17.542 28.91,20.487C28.91,24.611 27.562,28.058 24.867,30.827C22.171,33.596 18.806,34.981 14.77,34.981ZM14.77,31.446C17.834,31.446 20.367,30.407 22.37,28.331C24.373,26.254 25.375,23.639 25.375,20.487C25.375,18.337 24.484,15.907 22.701,13.196C20.919,10.486 18.275,7.526 14.77,4.315C11.264,7.526 8.62,10.486 6.838,13.196C5.056,15.907 4.165,18.337 4.165,20.487C4.165,23.639 5.166,26.254 7.17,28.331C9.173,30.407 11.706,31.446 14.77,31.446Z" fill="#F69454"/>
</svg>
