<svg width="34" height="26" viewBox="0 0 34 26" fill="none" xmlns="http://www.w3.org/2000/svg" xmlns:xlink="http://www.w3.org/1999/xlink">
<path d="M0.017,7.651C8.892,-1.222 23.282,-1.222 32.155,7.651C32.261,7.757 32.344,7.882 32.402,8.02C32.459,8.158 32.488,8.306 32.488,8.455C32.488,8.604 32.459,8.752 32.402,8.89C32.344,9.028 32.261,9.153 32.155,9.259L31.352,10.062C31.139,10.274 30.85,10.394 30.549,10.394C30.248,10.394 29.959,10.274 29.746,10.062C22.202,2.519 9.971,2.519 2.428,10.062C2.215,10.274 1.926,10.394 1.625,10.394C1.324,10.394 1.035,10.274 0.822,10.062L0.019,9.259C-0.194,9.046 -0.313,8.757 -0.313,8.456C-0.313,8.155 -0.194,7.866 0.019,7.653L0.017,7.651ZM4.838,12.472C11.05,6.261 21.123,6.261 27.336,12.472C27.441,12.578 27.525,12.703 27.582,12.841C27.64,12.979 27.669,13.127 27.669,13.276C27.669,13.425 27.64,13.573 27.582,13.711C27.525,13.849 27.441,13.974 27.336,14.079L26.533,14.882C26.427,14.988 26.302,15.072 26.164,15.129C26.026,15.187 25.878,15.216 25.728,15.216C25.579,15.216 25.431,15.187 25.293,15.129C25.155,15.072 25.03,14.988 24.924,14.882C22.58,12.539 19.401,11.222 16.086,11.222C12.771,11.222 9.592,12.539 7.248,14.882C7.035,15.095 6.747,15.215 6.445,15.215C6.144,15.215 5.856,15.095 5.643,14.882L4.84,14.079C4.627,13.866 4.507,13.578 4.507,13.277C4.507,12.975 4.627,12.687 4.84,12.474L4.838,12.472ZM9.692,17.293C10.536,16.449 11.538,15.779 12.641,15.322C13.744,14.865 14.926,14.63 16.12,14.63C17.314,14.63 18.496,14.865 19.599,15.322C20.702,15.779 21.704,16.449 22.548,17.293C22.654,17.398 22.738,17.524 22.795,17.662C22.852,17.799 22.882,17.947 22.882,18.097C22.882,18.246 22.852,18.394 22.795,18.532C22.738,18.669 22.654,18.795 22.548,18.9L21.746,19.703C21.64,19.809 21.515,19.893 21.377,19.95C21.239,20.007 21.091,20.036 20.942,20.036C20.793,20.036 20.645,20.007 20.507,19.95C20.369,19.893 20.244,19.809 20.138,19.703C19.61,19.175 18.984,18.757 18.295,18.471C17.605,18.186 16.866,18.039 16.12,18.039C15.374,18.039 14.635,18.186 13.946,18.471C13.256,18.757 12.63,19.175 12.102,19.703C11.889,19.916 11.601,20.035 11.3,20.035C10.998,20.035 10.71,19.916 10.497,19.703L9.694,18.9C9.481,18.687 9.361,18.398 9.361,18.097C9.361,17.796 9.481,17.507 9.694,17.294L9.692,17.293ZM14.513,22.114C14.724,21.902 14.974,21.735 15.25,21.621C15.526,21.506 15.822,21.447 16.12,21.447C16.419,21.447 16.714,21.506 16.99,21.621C17.266,21.735 17.517,21.902 17.728,22.114C17.833,22.219 17.917,22.344 17.974,22.482C18.031,22.62 18.061,22.768 18.061,22.917C18.061,23.067 18.031,23.214 17.974,23.352C17.917,23.49 17.833,23.616 17.728,23.721L16.925,24.524C16.819,24.63 16.694,24.713 16.556,24.77C16.418,24.828 16.27,24.857 16.121,24.857C15.972,24.857 15.824,24.828 15.686,24.77C15.548,24.713 15.423,24.63 15.317,24.524L14.514,23.721C14.302,23.508 14.182,23.219 14.182,22.918C14.182,22.617 14.302,22.328 14.514,22.115L14.513,22.114Z" clip-rule="evenodd" fill-rule="evenodd" fill="#F69454"/>
</svg>
