<svg width="56" height="58" viewBox="0 0 56 58" fill="none" xmlns="http://www.w3.org/2000/svg" xmlns:xlink="http://www.w3.org/1999/xlink">
<path d="M20.561,30.211C19.975,29.625 19.025,29.625 18.439,30.211C17.854,30.797 17.854,31.747 18.439,32.332L20.561,30.211ZM26.063,37.834L25.002,38.895C25.314,39.207 25.747,39.365 26.186,39.329C26.626,39.293 27.027,39.065 27.283,38.706L26.063,37.834ZM38.221,23.394C38.702,22.719 38.546,21.783 37.872,21.301C37.198,20.82 36.261,20.976 35.779,21.65L38.221,23.394ZM28.25,2L29.282,0.911C28.703,0.363 27.796,0.363 27.217,0.912L28.25,2ZM3.744,11.584L3.765,10.084C3.109,10.075 2.524,10.493 2.319,11.116L3.744,11.584ZM2,22.519L3.5,22.519L3.5,22.518L2,22.519ZM28.25,56.419L27.876,57.872C28.121,57.935 28.379,57.935 28.624,57.872L28.25,56.419ZM52.756,11.581L54.181,11.113C53.978,10.497 53.404,10.081 52.756,10.081L52.756,11.581ZM18.439,32.332L25.002,38.895L27.123,36.774L20.561,30.211L18.439,32.332ZM27.283,38.706L38.221,23.394L35.779,21.65L24.842,36.962L27.283,38.706ZM27.217,0.912C20.897,6.914 12.48,10.206 3.765,10.084L3.723,13.084C13.221,13.217 22.395,9.629 29.283,3.088L27.217,0.912ZM2.319,11.116C1.111,14.797 0.497,18.646 0.5,22.52L3.5,22.518C3.497,18.963 4.061,15.43 5.169,12.052L2.319,11.116ZM0.5,22.519C0.5,39.53 12.133,53.817 27.876,57.872L28.624,54.967C14.174,51.245 3.5,38.128 3.5,22.519L0.5,22.519ZM28.624,57.872C44.367,53.82 56,39.533 56,22.522L53,22.522C53,38.131 42.326,51.248 27.876,54.966L28.624,57.872ZM56,22.522C56,18.54 55.362,14.704 54.181,11.113L51.331,12.05C52.413,15.342 53,18.862 53,22.522L56,22.522ZM52.756,10.081L52.313,10.081L52.313,13.081L52.756,13.081L52.756,10.081ZM52.313,10.081C43.389,10.081 35.285,6.599 29.282,0.911L27.218,3.089C33.757,9.284 42.593,13.081 52.313,13.081L52.313,10.081Z" fill="#E47B37"/>
</svg>
