<svg width="24" height="28" viewBox="0 0 24 28" fill="none" xmlns="http://www.w3.org/2000/svg" xmlns:xlink="http://www.w3.org/1999/xlink">
<path d="M3.697,15.928C3.697,17.144 3.936,18.296 4.413,19.384C4.89,20.471 5.572,21.425 6.458,22.243C6.435,22.126 6.424,22.021 6.424,21.927L6.424,21.612C6.424,20.863 6.56,20.162 6.833,19.507C7.106,18.852 7.503,18.255 8.026,17.717L11.878,13.823L15.73,17.717C16.253,18.255 16.65,18.852 16.923,19.507C17.196,20.162 17.332,20.863 17.332,21.612L17.332,21.927C17.332,22.021 17.321,22.126 17.298,22.243C18.184,21.425 18.866,20.471 19.343,19.384C19.82,18.296 20.059,17.144 20.059,15.928C20.059,14.759 19.849,13.653 19.428,12.613C19.008,11.572 18.4,10.642 17.605,9.823C17.15,10.127 16.673,10.355 16.173,10.508C15.673,10.66 15.162,10.736 14.639,10.736C13.23,10.736 12.009,10.256 10.975,9.297C9.941,8.338 9.344,7.157 9.185,5.754C8.299,6.525 7.515,7.327 6.833,8.157C6.151,8.987 5.577,9.829 5.112,10.683C4.646,11.537 4.294,12.408 4.055,13.297C3.816,14.186 3.697,15.063 3.697,15.928ZM11.878,17.752L9.935,19.717C9.685,19.974 9.492,20.267 9.355,20.594C9.219,20.922 9.151,21.261 9.151,21.612C9.151,22.36 9.418,23.003 9.952,23.541C10.486,24.079 11.128,24.348 11.878,24.348C12.628,24.348 13.27,24.079 13.804,23.541C14.338,23.003 14.605,22.36 14.605,21.612C14.605,21.237 14.537,20.892 14.4,20.577C14.264,20.261 14.071,19.974 13.821,19.717L11.878,17.752ZM11.878,0.491L11.878,5.122C11.878,5.917 12.145,6.584 12.679,7.122C13.213,7.66 13.866,7.929 14.639,7.929C15.048,7.929 15.429,7.841 15.781,7.666C16.133,7.49 16.446,7.227 16.718,6.876L17.332,6.104C19.014,7.087 20.343,8.455 21.32,10.209C22.297,11.964 22.786,13.87 22.786,15.928C22.786,19.062 21.729,21.717 19.616,23.892C17.502,26.067 14.923,27.155 11.878,27.155C8.833,27.155 6.254,26.067 4.14,23.892C2.027,21.717 0.97,19.062 0.97,15.928C0.97,12.911 1.953,10.046 3.919,7.332C5.884,4.619 8.537,2.339 11.878,0.491Z" fill="#FFA726"/>
</svg>
