<svg width="36" height="36" viewBox="0 0 36 36" fill="none" xmlns="http://www.w3.org/2000/svg" xmlns:xlink="http://www.w3.org/1999/xlink">
<path d="M20.5,2.8C20.5,1.419 19.381,0.3 18,0.3C16.619,0.3 15.5,1.419 15.5,2.8L20.5,2.8ZM15.5,33.2C15.5,34.581 16.619,35.7 18,35.7C19.381,35.7 20.5,34.581 20.5,33.2L15.5,33.2ZM33.2,20.5C34.581,20.5 35.7,19.381 35.7,18C35.7,16.619 34.581,15.5 33.2,15.5L33.2,20.5ZM2.8,15.5C1.419,15.5 0.3,16.619 0.3,18C0.3,19.381 1.419,20.5 2.8,20.5L2.8,15.5ZM15.5,2.8L15.5,33.2L20.5,33.2L20.5,2.8L15.5,2.8ZM33.2,15.5L2.8,15.5L2.8,20.5L33.2,20.5L33.2,15.5Z" fill="#F9B68A"/>
</svg>
