<svg width="10" height="20" viewBox="0 0 10 20" fill="none" xmlns="http://www.w3.org/2000/svg" xmlns:xlink="http://www.w3.org/1999/xlink">
<path d="M1.334,18.333C1.022,18.334 0.72,18.225 0.48,18.027C0.345,17.915 0.234,17.777 0.152,17.622C0.07,17.467 0.02,17.297 0.004,17.123C-0.012,16.948 0.006,16.772 0.058,16.604C0.11,16.437 0.195,16.281 0.307,16.147L6.28,9L0.52,1.84C0.41,1.704 0.327,1.547 0.277,1.378C0.227,1.21 0.211,1.033 0.23,0.858C0.248,0.684 0.301,0.514 0.385,0.36C0.47,0.206 0.583,0.07 0.72,-0.04C0.858,-0.161 1.02,-0.253 1.195,-0.309C1.37,-0.365 1.555,-0.384 1.737,-0.365C1.92,-0.347 2.097,-0.29 2.257,-0.2C2.417,-0.109 2.557,0.013 2.667,0.16L9.107,8.16C9.303,8.399 9.41,8.698 9.41,9.007C9.41,9.316 9.303,9.615 9.107,9.853L2.44,17.853C2.307,18.015 2.137,18.142 1.944,18.226C1.752,18.309 1.543,18.346 1.334,18.333Z" fill="#8F90A6"/>
</svg>
