<svg width="52" height="52" viewBox="0 0 52 52" fill="none" xmlns="http://www.w3.org/2000/svg" xmlns:xlink="http://www.w3.org/1999/xlink">
<path d="M27.901,9.556C27.901,8.506 27.05,7.654 26,7.654C24.95,7.654 24.099,8.506 24.099,9.556L27.901,9.556ZM26,25.111L24.099,25.111C24.099,26.161 24.95,27.012 26,27.012L26,25.111ZM38,27.012C39.05,27.012 39.901,26.161 39.901,25.111C39.901,24.061 39.05,23.21 38,23.21L38,27.012ZM50,25.111L48.099,25.111L50,25.111ZM26,1.778L26,3.679L26,1.778ZM24.099,9.556L24.099,25.111L27.901,25.111L27.901,9.556L24.099,9.556ZM26,27.012L38,27.012L38,23.21L26,23.21L26,27.012ZM48.099,25.111C48.099,27.918 47.53,30.699 46.424,33.295L49.922,34.786C51.228,31.72 51.901,28.433 51.901,25.111L48.099,25.111ZM46.424,33.295C45.318,35.892 43.695,38.254 41.645,40.247L44.296,42.973C46.703,40.633 48.616,37.851 49.922,34.786L46.424,33.295ZM41.645,40.247C39.596,42.24 37.159,43.823 34.474,44.905L35.895,48.432C39.033,47.168 41.888,45.314 44.296,42.973L41.645,40.247ZM34.474,44.905C31.789,45.986 28.909,46.543 26,46.543L26,50.346C29.394,50.346 32.756,49.696 35.895,48.432L34.474,44.905ZM26,46.543C23.091,46.543 20.211,45.986 17.526,44.905L16.105,48.432C19.244,49.696 22.606,50.346 26,50.346L26,46.543ZM17.526,44.905C14.841,43.823 12.404,42.24 10.355,40.247L7.704,42.973C10.112,45.314 12.967,47.168 16.105,48.432L17.526,44.905ZM10.355,40.247C8.305,38.254 6.682,35.892 5.576,33.295L2.078,34.786C3.384,37.851 5.297,40.633 7.704,42.973L10.355,40.247ZM5.576,33.295C4.47,30.699 3.901,27.918 3.901,25.111L0.099,25.111C0.099,28.433 0.772,31.72 2.078,34.786L5.576,33.295ZM3.901,25.111C3.901,19.445 6.216,13.999 10.355,9.975L7.704,7.249C2.841,11.977 0.099,18.401 0.099,25.111L3.901,25.111ZM10.355,9.975C14.495,5.95 20.122,3.679 26,3.679L26,-0.123C19.148,-0.123 12.565,2.523 7.704,7.249L10.355,9.975ZM26,3.679C31.878,3.679 37.505,5.95 41.645,9.975L44.296,7.249C39.435,2.523 32.852,-0.123 26,-0.123L26,3.679ZM41.645,9.975C45.784,13.999 48.099,19.445 48.099,25.111L51.901,25.111C51.901,18.401 49.159,11.977 44.296,7.249L41.645,9.975Z" fill="#FFFFFF"/>
</svg>
