<svg width="20" height="10" viewBox="0 0 20 10" fill="none" xmlns="http://www.w3.org/2000/svg" xmlns:xlink="http://www.w3.org/1999/xlink">
<path d="M8.652,8.651C8.341,8.652 8.039,8.543 7.799,8.345L-0.201,1.678C-0.473,1.452 -0.644,1.126 -0.677,0.774C-0.709,0.421 -0.601,0.07 -0.374,-0.202C-0.148,-0.474 0.177,-0.646 0.53,-0.678C0.882,-0.711 1.234,-0.602 1.506,-0.375L8.652,5.598L15.799,-0.162C15.936,-0.273 16.092,-0.356 16.261,-0.405C16.429,-0.455 16.606,-0.472 16.781,-0.453C16.955,-0.434 17.125,-0.381 17.279,-0.297C17.433,-0.213 17.569,-0.099 17.679,0.038C17.801,0.175 17.894,0.336 17.951,0.51C18.008,0.685 18.028,0.869 18.011,1.052C17.993,1.235 17.938,1.412 17.849,1.572C17.76,1.733 17.638,1.873 17.492,1.985L9.492,8.425C9.246,8.592 8.95,8.672 8.652,8.651L8.652,8.651Z" transform="rotate(-180 8.667 3.985)" fill="#F69454"/>
</svg>
