<svg width="30" height="54" viewBox="0 0 30 54" fill="none" xmlns="http://www.w3.org/2000/svg" xmlns:xlink="http://www.w3.org/1999/xlink">
<path d="M24.303,51.697C25.24,52.634 26.76,52.634 27.697,51.697C28.634,50.76 28.634,49.24 27.697,48.303L24.303,51.697ZM2,26L0.303,24.303C-0.634,25.24 -0.634,26.76 0.303,27.697L2,26ZM27.697,3.697C28.634,2.76 28.634,1.24 27.697,0.303C26.76,-0.634 25.24,-0.634 24.303,0.303L27.697,3.697ZM27.697,48.303L3.697,24.303L0.303,27.697L24.303,51.697L27.697,48.303ZM3.697,27.697L27.697,3.697L24.303,0.303L0.303,24.303L3.697,27.697Z" fill="#FFFFFF"/>
</svg>
