<svg width="24" height="20" viewBox="0 0 24 20" fill="none" xmlns="http://www.w3.org/2000/svg" xmlns:xlink="http://www.w3.org/1999/xlink">
<path d="M2.856,9.985C2.391,9.512 1.632,9.505 1.159,9.97C0.686,10.435 0.68,11.194 1.144,11.667L2.856,9.985ZM9.051,18L8.195,18.841C8.43,19.081 8.755,19.211 9.091,19.199C9.427,19.188 9.742,19.037 9.961,18.782L9.051,18ZM23.71,2.782C24.142,2.279 24.085,1.522 23.582,1.09C23.079,0.658 22.322,0.715 21.89,1.218L23.71,2.782ZM1.144,11.667L8.195,18.841L9.907,17.159L2.856,9.985L1.144,11.667ZM9.961,18.782L23.71,2.782L21.89,1.218L8.141,17.218L9.961,18.782Z" fill="#8C8C8C"/>
</svg>
