<svg width="34" height="40" viewBox="0 0 34 40" fill="none" xmlns="http://www.w3.org/2000/svg" xmlns:xlink="http://www.w3.org/1999/xlink">
<path d="M15.297,39.312L15.434,39.39L15.489,39.421C15.707,39.539 15.951,39.6 16.199,39.6C16.447,39.6 16.691,39.539 16.909,39.421L16.964,39.392L17.103,39.312C17.871,38.858 18.621,38.374 19.35,37.86C21.237,36.533 23,35.04 24.618,33.398C28.435,29.506 32.4,23.658 32.4,16.135C32.4,11.855 30.693,7.752 27.655,4.726C24.617,1.7 20.497,0 16.2,0C11.904,0 7.783,1.7 4.745,4.726C1.707,7.752 0,11.855 0,16.135C0,23.656 3.967,29.506 7.782,33.398C9.399,35.04 11.162,36.533 13.048,37.86C13.778,38.374 14.528,38.858 15.297,39.312ZM16.2,22.002C17.762,22.002 19.261,21.384 20.366,20.283C21.47,19.183 22.091,17.691 22.091,16.135C22.091,14.579 21.47,13.086 20.366,11.986C19.261,10.886 17.762,10.267 16.2,10.267C14.638,10.267 13.139,10.886 12.034,11.986C10.93,13.086 10.309,14.579 10.309,16.135C10.309,17.691 10.93,19.183 12.034,20.283C13.139,21.384 14.638,22.002 16.2,22.002Z" clip-rule="evenodd" fill-rule="evenodd" fill="#FFFFFF"/>
</svg>
