<svg width="34" height="28" viewBox="0 0 34 28" fill="none" xmlns="http://www.w3.org/2000/svg" xmlns:xlink="http://www.w3.org/1999/xlink">
<path d="M1.999,5.643C1.329,5.643 0.787,6.186 0.787,6.855C0.787,7.525 1.329,8.067 1.999,8.067L1.999,5.643ZM31.541,8.067C32.211,8.067 32.753,7.525 32.753,6.855C32.753,6.186 32.211,5.643 31.541,5.643L31.541,8.067ZM1.999,6.874C1.329,6.874 0.787,7.417 0.787,8.086C0.787,8.756 1.329,9.298 1.999,9.298L1.999,6.874ZM31.541,9.298C32.211,9.298 32.753,8.756 32.753,8.086C32.753,7.417 32.211,6.874 31.541,6.874L31.541,9.298ZM6.544,15.491C5.874,15.491 5.332,16.034 5.332,16.703C5.332,17.372 5.874,17.915 6.544,17.915L6.544,15.491ZM15.634,17.915C16.303,17.915 16.846,17.372 16.846,16.703C16.846,16.034 16.303,15.491 15.634,15.491L15.634,17.915ZM6.544,19.184C5.874,19.184 5.332,19.726 5.332,20.396C5.332,21.065 5.874,21.608 6.544,21.608L6.544,19.184ZM11.089,21.608C11.758,21.608 12.301,21.065 12.301,20.396C12.301,19.726 11.758,19.184 11.089,19.184L11.089,21.608ZM5.408,0.701L5.408,-0.511L5.408,0.701ZM1.999,4.394L0.787,4.394L1.999,4.394ZM1.999,21.627L0.787,21.627L1.999,21.627ZM1.999,8.067L31.541,8.067L31.541,5.643L1.999,5.643L1.999,8.067ZM1.999,9.298L31.541,9.298L31.541,6.874L1.999,6.874L1.999,9.298ZM6.544,17.915L15.634,17.915L15.634,15.491L6.544,15.491L6.544,17.915ZM6.544,21.608L11.089,21.608L11.089,19.184L6.544,19.184L6.544,21.608ZM5.408,26.531L28.133,26.531L28.133,24.107L5.408,24.107L5.408,26.531ZM28.133,26.531C29.391,26.531 30.576,25.989 31.433,25.06L29.652,23.416C29.231,23.872 28.682,24.107 28.133,24.107L28.133,26.531ZM31.433,25.06C32.288,24.134 32.753,22.897 32.753,21.627L30.329,21.627C30.329,22.314 30.076,22.957 29.652,23.416L31.433,25.06ZM32.753,21.627L32.753,4.394L30.329,4.394L30.329,21.627L32.753,21.627ZM32.753,4.394C32.753,3.123 32.288,1.886 31.433,0.96L29.652,2.604C30.076,3.064 30.329,3.706 30.329,4.394L32.753,4.394ZM31.433,0.96C30.576,0.031 29.391,-0.511 28.133,-0.511L28.133,1.913C28.682,1.913 29.231,2.148 29.652,2.604L31.433,0.96ZM28.133,-0.511L5.408,-0.511L5.408,1.913L28.133,1.913L28.133,-0.511ZM5.408,-0.511C4.149,-0.511 2.964,0.031 2.107,0.96L3.888,2.604C4.309,2.148 4.858,1.913 5.408,1.913L5.408,-0.511ZM2.107,0.96C1.252,1.886 0.787,3.123 0.787,4.394L3.211,4.394C3.211,3.706 3.464,3.064 3.888,2.604L2.107,0.96ZM0.787,4.394L0.787,21.627L3.211,21.627L3.211,4.394L0.787,4.394ZM0.787,21.627C0.787,22.897 1.252,24.134 2.107,25.06L3.888,23.416C3.464,22.957 3.211,22.314 3.211,21.627L0.787,21.627ZM2.107,25.06C2.964,25.989 4.149,26.531 5.408,26.531L5.408,24.107C4.858,24.107 4.309,23.872 3.888,23.416L2.107,25.06Z" fill="#F69454"/>
</svg>
